<svg width="45" height="46" viewBox="0 0 45 46" fill="none" xmlns="http://www.w3.org/2000/svg">
<g clip-path="url(#clip0_12_13687)">
<path d="M18.2812 23.1685H26.7188V30.5513H18.2812V23.1685Z" fill="#FFCFBE"/>
<path d="M18.2812 27.3872C19.2435 28.4117 20.7749 29.145 22.5 29.145C24.2645 29.145 25.7614 28.4517 26.7188 27.3872V40.7469H18.2812V27.3872Z" fill="#5DDCB8"/>
<path d="M18.2813 27.3872C19.2435 28.4117 20.7749 29.145 22.5 29.145C24.2645 29.145 25.7614 28.4517 26.7188 27.3872C27.1083 27.4733 27.5903 27.5897 28.1338 27.73C27.3161 29.3721 25.1058 30.5513 22.5 30.5513C19.8942 30.5513 17.6839 29.3721 16.8662 27.73C17.4097 27.5897 17.8917 27.4737 18.2813 27.3872Z" fill="#4BBE9E"/>
<path d="M12.3047 31.254L5.97656 30.5513C5.97656 30.5513 2.46094 34.0669 0.703125 40.7466H12.3047V31.254Z" fill="#F1F0F2"/>
<path d="M16.875 27.0356C14.3687 27.5908 8.05465 29.0272 5.97656 30.5513L9.49219 40.7466H21.0938L16.875 27.0356Z" fill="#F1F0F2"/>
<path d="M32.6953 31.254L39.0234 30.5513C39.0234 30.5513 42.5391 34.0669 44.2969 40.7466H32.6953V31.254Z" fill="#F1F0F2"/>
<path d="M28.125 27.0356C30.6313 27.5908 36.9454 29.0272 39.0234 30.5513L35.5078 40.7466H23.9062L28.125 27.0356Z" fill="#F1F0F2"/>
<path d="M35.1562 15.0322C35.1562 16.5854 34.0545 18.2466 32.6953 18.2466C31.3362 18.2466 30.2344 16.5854 30.2344 15.0322C30.2344 13.479 31.3362 12.6216 32.6953 12.6216C34.0545 12.6216 35.1562 13.479 35.1562 15.0322Z" fill="#FFCFBE"/>
<path d="M14.4141 15.0322C14.4141 16.5854 13.3123 18.2466 11.9531 18.2466C10.594 18.2466 9.49219 16.5854 9.49219 15.0322C9.49219 13.479 10.594 12.6216 11.9531 12.6216C13.3123 12.6216 14.4141 13.479 14.4141 15.0322Z" fill="#FFCFBE"/>
<path d="M31.2891 6.29346H13.7109C12.9241 6.48436 12.3047 7.24162 12.3047 8.05127V15.085C12.3047 21.0591 16.875 25.6294 22.5 25.6294C28.125 25.6294 32.6953 21.0591 32.6953 15.085V8.05127C32.6953 7.23916 32.079 6.48225 31.2891 6.29346Z" fill="#FFCFBE"/>
<path d="M22.5 -2.84717C28.0143 -2.84717 34.1016 1.43768 34.1016 8.05127C34.0833 12.2391 32.6953 15.0825 32.6953 15.0825C32.6953 12.9731 31.6406 8.05127 31.6406 8.05127C25.6641 9.45752 13.7109 6.64502 13.7109 6.64502C13.7109 6.64502 12.3047 8.75439 12.3047 15.0825C12.3047 15.0825 10.1953 12.6216 10.1953 8.40283C10.1953 3.14205 12.6562 2.07471 12.6562 2.07471C12.6562 2.07471 13.3594 -2.84717 22.5 -2.84717Z" fill="#0D0D17"/>
<path d="M22.493 23.1681C21.6985 23.1681 20.9061 22.9122 20.1861 22.401C20.11 22.347 20.0586 22.265 20.043 22.173C20.0275 22.081 20.0491 21.9866 20.1031 21.9106C20.1571 21.8346 20.2392 21.7831 20.3311 21.7675C20.4231 21.752 20.5175 21.7736 20.5935 21.8276C21.7969 22.683 23.1867 22.6826 24.4069 21.8266C24.4447 21.7999 24.4874 21.7809 24.5325 21.7708C24.5776 21.7606 24.6243 21.7595 24.6699 21.7674C24.7154 21.7753 24.759 21.7921 24.798 21.8169C24.8371 21.8417 24.8709 21.8739 24.8974 21.9118C24.924 21.9497 24.9429 21.9924 24.9529 22.0375C24.9629 22.0827 24.9639 22.1294 24.9559 22.1749C24.9479 22.2204 24.9309 22.264 24.906 22.3029C24.8811 22.3419 24.8488 22.3756 24.8109 22.4021C24.0828 22.9125 23.2869 23.1681 22.493 23.1681Z" fill="#414042"/>
<path d="M17.9297 16.4888C18.5122 16.4888 18.9844 16.0166 18.9844 15.4341C18.9844 14.8516 18.5122 14.3794 17.9297 14.3794C17.3472 14.3794 16.875 14.8516 16.875 15.4341C16.875 16.0166 17.3472 16.4888 17.9297 16.4888Z" fill="#414042"/>
<path d="M27.0703 16.4888C27.6528 16.4888 28.125 16.0166 28.125 15.4341C28.125 14.8516 27.6528 14.3794 27.0703 14.3794C26.4878 14.3794 26.0156 14.8516 26.0156 15.4341C26.0156 16.0166 26.4878 16.4888 27.0703 16.4888Z" fill="#414042"/>
<path d="M20.0393 12.6191C19.9737 12.6191 19.9094 12.6007 19.8537 12.566C17.8994 11.3493 16.6264 12.1677 16.0828 12.5175L16.009 12.565C15.9303 12.6106 15.8369 12.6241 15.7485 12.6024C15.6601 12.5807 15.5836 12.5256 15.5349 12.4486C15.4863 12.3717 15.4694 12.2789 15.4877 12.1897C15.506 12.1006 15.5582 12.022 15.6332 11.9705L15.7028 11.9262C16.3019 11.5405 17.8944 10.5175 20.2257 11.9694C20.2904 12.0099 20.3402 12.0703 20.3675 12.1416C20.3949 12.2128 20.3983 12.2911 20.3773 12.3645C20.3562 12.4378 20.3119 12.5024 20.2509 12.5483C20.1899 12.5943 20.1157 12.6191 20.0393 12.6191Z" fill="#414042"/>
<path d="M24.9619 12.6193C24.8856 12.6193 24.8113 12.5945 24.7503 12.5485C24.6894 12.5026 24.645 12.438 24.624 12.3647C24.6029 12.2913 24.6063 12.2131 24.6337 12.1418C24.661 12.0705 24.7109 12.0101 24.7756 11.9696C27.1071 10.517 28.6994 11.5411 29.2988 11.9264L29.368 11.9707C29.4431 12.0222 29.4952 12.1008 29.5136 12.1899C29.5319 12.2791 29.515 12.3719 29.4663 12.4488C29.4177 12.5258 29.3411 12.5809 29.2527 12.6026C29.1643 12.6243 29.071 12.6109 28.9922 12.5652L28.9184 12.5181C28.3752 12.1686 27.1015 11.3498 25.1472 12.5666C25.0895 12.6021 25.0255 12.6193 24.9619 12.6193Z" fill="#414042"/>
<path d="M22.4983 20.0047H22.4965C22.1537 20.004 21.8229 19.844 21.5399 19.542C21.48 19.4733 21.449 19.384 21.4536 19.293C21.4581 19.2019 21.4979 19.1161 21.5644 19.0538C21.631 18.9914 21.7191 18.9574 21.8103 18.9587C21.9015 18.9601 21.9885 18.9968 22.0532 19.0611C22.1559 19.1704 22.3162 19.3012 22.4976 19.3015H22.4983C22.6811 19.3015 22.8432 19.1704 22.9472 19.06C22.9789 19.0264 23.0169 18.9994 23.059 18.9805C23.1012 18.9616 23.1466 18.9512 23.1928 18.9499C23.239 18.9485 23.2849 18.9563 23.3281 18.9727C23.3712 18.9891 23.4107 19.0139 23.4443 19.0456C23.4779 19.0773 23.5049 19.1153 23.5238 19.1574C23.5427 19.1996 23.5532 19.245 23.5545 19.2912C23.5558 19.3373 23.5481 19.3833 23.5316 19.4265C23.5152 19.4696 23.4904 19.5091 23.4587 19.5427C23.1733 19.8451 22.8414 20.0047 22.4983 20.0047Z" fill="#414042"/>
<path d="M18.2812 25.981L21.0938 40.7466L15.4688 35.4731L16.1719 32.6606L13.7109 32.3087L16.5234 27.0353C16.8089 26.5188 17.6221 25.9813 18.2812 25.981Z" fill="#F1F0F2"/>
<path d="M26.7188 25.981L23.9062 40.7466L29.5312 35.4731L28.8281 32.6606L31.2891 32.3087L28.4766 27.0353C28.1911 26.5188 27.3779 25.9813 26.7188 25.981Z" fill="#F1F0F2"/>
<path d="M16.5234 38.2856H14.7656C14.6724 38.2856 14.583 38.2486 14.517 38.1827C14.4511 38.1167 14.4141 38.0273 14.4141 37.9341C14.4141 37.8408 14.4511 37.7514 14.517 37.6855C14.583 37.6196 14.6724 37.5825 14.7656 37.5825H16.5234C16.9112 37.5825 17.2266 37.2672 17.2266 36.8794V33.3638C17.2266 31.619 15.807 30.1997 14.0625 30.1997C12.318 30.1997 10.8984 31.619 10.8984 33.3638V36.8794C10.8984 37.2672 11.2138 37.5825 11.6016 37.5825H13.0078C13.1011 37.5825 13.1905 37.6196 13.2564 37.6855C13.3223 37.7514 13.3594 37.8408 13.3594 37.9341C13.3594 38.0273 13.3223 38.1167 13.2564 38.1827C13.1905 38.2486 13.1011 38.2856 13.0078 38.2856H11.6016C10.826 38.2856 10.1953 37.6549 10.1953 36.8794V33.3638C10.1953 31.2315 11.9303 29.4966 14.0625 29.4966C16.1947 29.4966 17.9297 31.2315 17.9297 33.3638V36.8794C17.9297 37.6549 17.299 38.2856 16.5234 38.2856Z" fill="#0D0D17"/>
<path d="M14.0625 29.4966C11.9303 29.4966 10.1953 31.2315 10.1953 33.3638H10.8984C10.8984 31.619 12.318 30.1997 14.0625 30.1997C15.807 30.1997 17.2266 31.619 17.2266 33.3638H17.9297C17.9297 31.2315 16.1947 29.4966 14.0625 29.4966Z" fill="#5DDCB8"/>
<path d="M13.0078 37.5825H12.3047V38.2856H13.0078C13.1011 38.2856 13.1905 38.2486 13.2564 38.1827C13.3223 38.1167 13.3594 38.0273 13.3594 37.9341C13.3594 37.8408 13.3223 37.7514 13.2564 37.6855C13.1905 37.6196 13.1011 37.5825 13.0078 37.5825Z" fill="#5DDCB8"/>
<path d="M14.7656 37.5825H15.4688V38.2856H14.7656C14.6724 38.2856 14.583 38.2486 14.517 38.1827C14.4511 38.1167 14.4141 38.0273 14.4141 37.9341C14.4141 37.8408 14.4511 37.7514 14.517 37.6855C14.583 37.6196 14.6724 37.5825 14.7656 37.5825Z" fill="#5DDCB8"/>
<path d="M28.1197 23.9194C27.7597 24.1619 27.3844 24.3807 26.9961 24.5747H27.4225C30.1366 24.5747 32.3444 26.7826 32.3444 29.4966V33.7154C32.3444 33.8086 32.3815 33.898 32.4474 33.964C32.5133 34.0299 32.6027 34.0669 32.696 34.0669C32.7892 34.0669 32.8786 34.0299 32.9446 33.964C33.0105 33.898 33.0475 33.8086 33.0475 33.7154V29.4966C33.0475 26.6317 30.8928 24.2647 28.1197 23.9194Z" fill="#5DDCB8"/>
<path d="M16.9035 23.9341C15.0922 24.2544 13.7109 25.8364 13.7109 27.7383V29.8477C13.7109 29.941 13.748 30.0304 13.8139 30.0963C13.8798 30.1622 13.9693 30.1993 14.0625 30.1993C14.1557 30.1993 14.2452 30.1622 14.3111 30.0963C14.377 30.0304 14.4141 29.941 14.4141 29.8477V27.7383C14.4141 25.9935 15.8337 24.5743 17.5781 24.5743C17.6675 24.5739 17.7534 24.5392 17.8179 24.4772C17.5037 24.3124 17.1985 24.1311 16.9035 23.9341Z" fill="#5DDCB8"/>
<path d="M32.6953 36.8794C33.6661 36.8794 34.4531 36.0924 34.4531 35.1216C34.4531 34.1508 33.6661 33.3638 32.6953 33.3638C31.7245 33.3638 30.9375 34.1508 30.9375 35.1216C30.9375 36.0924 31.7245 36.8794 32.6953 36.8794Z" fill="#FF5200"/>
<path d="M32.6953 36.8794C33.6661 36.8794 34.4531 36.0924 34.4531 35.1216C34.4531 34.1508 33.6661 33.3638 32.6953 33.3638C31.7245 33.3638 30.9375 34.1508 30.9375 35.1216C30.9375 36.0924 31.7245 36.8794 32.6953 36.8794Z" fill="black"/>
<mask id="mask0_12_13687" style="mask-type:luminance" maskUnits="userSpaceOnUse" x="30" y="33" width="5" height="4">
<path d="M32.6953 36.8794C33.6661 36.8794 34.4531 36.0924 34.4531 35.1216C34.4531 34.1508 33.6661 33.3638 32.6953 33.3638C31.7245 33.3638 30.9375 34.1508 30.9375 35.1216C30.9375 36.0924 31.7245 36.8794 32.6953 36.8794Z" fill="white"/>
</mask>
<g mask="url(#mask0_12_13687)">
<path d="M30.9375 33.3638H34.4531V36.8794H30.9375V33.3638Z" fill="#36CCB0"/>
</g>
<path d="M32.6953 37.231C31.532 37.231 30.5859 36.2849 30.5859 35.1216C30.5859 33.9583 31.532 33.0122 32.6953 33.0122C33.8586 33.0122 34.8047 33.9583 34.8047 35.1216C34.8047 36.2849 33.8586 37.231 32.6953 37.231ZM32.6953 33.7153C31.9198 33.7153 31.2891 34.346 31.2891 35.1216C31.2891 35.8971 31.9198 36.5278 32.6953 36.5278C33.4709 36.5278 34.1016 35.8971 34.1016 35.1216C34.1016 34.346 33.4709 33.7153 32.6953 33.7153Z" fill="#0D0D17"/>
</g>
<defs>
<clipPath id="clip0_12_13687">
<rect width="45" height="45" fill="white" transform="translate(0 0.307129)"/>
</clipPath>
</defs>
</svg>
