<svg width="46" height="46" viewBox="0 0 46 46" fill="none" xmlns="http://www.w3.org/2000/svg">
<g clip-path="url(#clip0_12_13726)">
<path d="M1.85352 13.8374H14.5977V36.689H1.85352V13.8374Z" fill="#5DDCB8"/>
<path d="M0.666992 12.519H14.5977V15.1558H0.666992V12.519Z" fill="#E9E9EB"/>
<path d="M13.2793 7.5249H44.4805V36.6896H13.2793V7.5249Z" fill="#F1F0F2"/>
<path d="M28.8799 7.5249H44.4805V36.6896H28.8799V7.5249Z" fill="#F1F0F2"/>
<path d="M12.0928 6.20654H45.667V8.84326H12.0928V6.20654Z" fill="#E9E9EB"/>
<path d="M28.8799 6.20654H45.667V8.84326H28.8799V6.20654Z" fill="#E9E9EB"/>
<path d="M7.56641 18.2319H10.2031V20.8687H7.56641V18.2319ZM7.56641 23.9448H10.2031V26.5815H7.56641V23.9448ZM7.56641 29.6577H10.2031V32.2944H7.56641V29.6577Z" fill="#F1F0F2"/>
<path d="M30.418 23.9448H33.0547V26.5815H30.418V23.9448ZM36.1309 23.9448H38.7676V26.5815H36.1309V23.9448Z" fill="#5DDCB8"/>
<path d="M24.7051 23.9448H27.3418V26.5815H24.7051V23.9448ZM18.9922 23.9448H21.6289V26.5815H18.9922V23.9448Z" fill="#5DDCB8"/>
<path d="M36.1309 18.2319H38.7676V20.8687H36.1309V18.2319ZM30.418 18.2319H33.0547V20.8687H30.418V18.2319Z" fill="#5DDCB8"/>
<path d="M20.6445 -0.10791V15.1561H37.1152V-0.10791H20.6445Z" fill="#5DDCB8"/>
<path d="M28.8799 -0.10791H37.1152V15.1561H28.8799V-0.10791Z" fill="#5DDCB8"/>
<path d="M32.7535 6.20586V8.84258H30.1985V11.3976H27.5618V8.84258H25.0068V6.20586H27.5618V3.65088H30.1985V6.20586H32.7535Z" fill="#F1F0F2"/>
<path d="M32.7532 6.20586V8.84258H30.1982V11.3976H28.8799V3.65088H30.1982V6.20586H32.7532Z" fill="#F1F0F2"/>
<path d="M24.7051 18.2319H27.3418V20.8687H24.7051V18.2319ZM18.9922 18.2319H21.6289V20.8687H18.9922V18.2319Z" fill="#5DDCB8"/>
<path d="M23.2773 29.6577H34.4834V36.689H23.2773V29.6577Z" fill="#5DDCB8"/>
<path d="M28.8799 29.6577H34.4829V36.689H28.8799V29.6577Z" fill="#5DDCB8"/>
<path d="M0.666992 35.3706H45.667V38.0073H0.666992V35.3706Z" fill="#E9E9EB"/>
<path d="M23.167 35.3706H45.667V38.0073H23.167V35.3706Z" fill="#E9E9EB"/>
</g>
<defs>
<clipPath id="clip0_12_13726">
<rect width="45" height="45" fill="white" transform="translate(0.666992 0.307129)"/>
</clipPath>
</defs>
</svg>
