<svg width="46" height="46" viewBox="0 0 46 46" fill="none" xmlns="http://www.w3.org/2000/svg">
<g clip-path="url(#clip0_12_13753)">
<path d="M0.333008 -3.55016V41.4497H16.7685L20.4599 18.8619L16.7685 -3.55016H0.333008Z" fill="#F1F0F2"/>
<path d="M16.7686 -3.55016V41.4497H33.2041V6.02989L25.8213 3.39318L23.6239 -3.55016H16.7686Z" fill="#F1F0F2"/>
<path d="M23.624 -3.55026V6.02979H33.2042V6.01106L23.6427 -3.55026H23.624Z" fill="#B9B9C1"/>
<path d="M13.5166 4.35988H10.8799V1.72317H8.24316V4.35988H5.60645V6.99659H8.24316V9.6333H10.8799V6.99659H13.5166V4.35988Z" fill="#5DDCB8"/>
<mask id="mask0_12_13753" style="mask-type:luminance" maskUnits="userSpaceOnUse" x="0" y="-4" width="46" height="46">
<path d="M0.333008 -3.55016H45.3329V41.4497H0.333008V-3.55016Z" fill="white"/>
</mask>
<g mask="url(#mask0_12_13753)">
<path d="M44.3235 16.3268C42.9776 14.981 40.7957 14.981 39.45 16.3268L36.5898 19.1842L38.1257 22.6411L41.4647 24.0591L44.3235 21.2003C45.6693 19.8545 45.6693 17.6726 44.3235 16.3268Z" fill="#5DDCB8"/>
<path d="M25.9688 29.7954V34.6821L30.8532 34.6712L41.4652 24.0591L36.5905 19.1842L25.9688 29.7954Z" fill="#5DDCB8"/>
<path d="M13.7321 32.418L10.3082 28.9942L5.99219 33.3102L7.85661 35.1746L10.3082 32.7231L13.4761 35.8911L16.4832 33.66L16.7682 33.793L17.1197 32.3968L16.7682 30.8833L16.1742 30.6061L13.7321 32.418Z" fill="#5DDCB8"/>
<path d="M18.6733 34.6821H22.3935V32.0454H19.2583L16.7686 30.8835V33.7932L18.6733 34.6821Z" fill="#5DDCB8"/>
<path d="M5.78223 26.1567H16.7685L17.2959 24.8384L16.7685 23.52H5.78223V26.1567Z" fill="#5DDCB8"/>
<path d="M21.6904 23.52H16.7686V26.1567H21.6904V23.52Z" fill="#5DDCB8"/>
<path d="M5.78223 18.2466V20.8833H16.7685L17.2959 19.5649L16.7685 18.2466H5.78223Z" fill="#5DDCB8"/>
<path d="M24.5908 18.2466H16.7686V20.8833H24.5908V18.2466Z" fill="#5DDCB8"/>
<path d="M5.78223 12.9732V15.6099H16.7685L17.1201 14.3794L16.7685 12.9732H5.78223Z" fill="#5DDCB8"/>
<path d="M19.4053 12.9732H16.7686V15.6099H19.4053V12.9732Z" fill="#5DDCB8"/>
</g>
</g>
<defs>
<clipPath id="clip0_12_13753">
<rect width="45" height="45" fill="white" transform="translate(0.333008 0.307129)"/>
</clipPath>
</defs>
</svg>
