<svg width="560" height="455" viewBox="0 0 560 455" fill="none" xmlns="http://www.w3.org/2000/svg">
<path d="M0 0H552C556.418 0 560 3.58172 560 8V455H0V0Z" fill="#FDFCFD"/>
<path opacity="0.35" d="M52.5162 298.596L79.2819 332.973C88.4751 344.773 102.589 351.676 117.547 351.676H449.714C462.185 351.676 474.181 346.868 483.201 338.255L488.921 332.799C520.712 302.447 526.929 253.979 503.811 216.596C498.197 207.516 495.74 196.838 496.81 186.221C500.811 146.57 474.453 110.212 435.525 101.681L361.369 85.4276C304.243 72.9114 244.503 85.6763 197.444 120.399C188.854 126.737 182.735 130.979 181.793 130.956C179.887 130.904 151.298 135.432 123.876 139.863C94.315 144.641 72.4171 169.907 71.9047 199.852C71.6862 212.715 66.3587 224.968 57.0977 233.905C39.2614 251.131 37.2872 279.034 52.5162 298.596Z" fill="#25E0A9"/>
<path d="M307.401 326.418H246.786V365.986H307.401V326.418Z" fill="#389379"/>
<path d="M307.401 326.418H246.786V343.983H307.401V326.418Z" fill="#389379"/>
<path d="M146.52 148.197H407.666C415.684 148.197 422.187 154.7 422.187 162.718V312.861H131.999V162.718C131.999 154.7 138.502 148.197 146.52 148.197Z" fill="#389379"/>
<path d="M412.067 165.318H142.112V305.153H412.067V165.318Z" fill="#4BBE9E"/>
<path d="M131.999 305.152H422.187V319.809C422.187 327.826 415.684 334.329 407.666 334.329H146.52C138.502 334.329 131.999 327.826 131.999 319.809V305.152Z" fill="#389379"/>
<path d="M277.093 326.416C280.127 326.416 282.586 323.957 282.586 320.923C282.586 317.889 280.127 315.43 277.093 315.43C274.059 315.43 271.6 317.889 271.6 320.923C271.6 323.957 274.059 326.416 277.093 326.416Z" fill="#4BBE9E"/>
<path d="M386.424 373.143H167.762C165.75 373.143 164.115 371.508 164.115 369.496C164.115 363.604 168.893 358.826 174.785 358.826H379.401C385.294 358.826 390.071 363.604 390.071 369.496C390.071 371.508 388.436 373.143 386.424 373.143Z" fill="#389379"/>
<path d="M398.586 186.334H342.041C341.129 186.334 340.391 187.073 340.391 187.984V199.649C340.391 200.56 341.129 201.299 342.041 201.299H398.586C399.498 201.299 400.237 200.56 400.237 199.649V187.984C400.237 187.073 399.498 186.334 398.586 186.334Z" fill="#F4F4F4"/>
<path d="M348.823 196.297L346.532 197.344L346.826 194.842L345.115 192.989L347.587 192.491L348.823 190.291L350.058 192.491L352.53 192.989L350.827 194.842L351.113 197.344L348.823 196.297Z" fill="#110C2C"/>
<path d="M359.568 196.297L357.277 197.344L357.571 194.842L355.861 192.989L358.332 192.491L359.568 190.291L360.804 192.491L363.275 192.989L361.572 194.842L361.859 197.344L359.568 196.297Z" fill="#110C2C"/>
<path d="M370.314 196.297L368.023 197.344L368.317 194.842L366.606 192.989L369.078 192.491L370.314 190.291L371.549 192.491L374.021 192.989L372.318 194.842L372.604 197.344L370.314 196.297Z" fill="#110C2C"/>
<path d="M381.059 196.297L378.768 197.344L379.062 194.842L377.352 192.989L379.823 192.491L381.059 190.291L382.295 192.491L384.766 192.989L383.063 194.842L383.35 197.344L381.059 196.297Z" fill="#110C2C"/>
<path d="M391.805 196.297L389.514 197.344L389.808 194.842L388.097 192.989L390.569 192.491L391.805 190.291L393.048 192.491L395.512 192.989L393.809 194.842L394.095 197.344L391.805 196.297Z" fill="#E9E9EB"/>
<path d="M157.25 177.631H217.533C219.357 177.631 220.834 179.108 220.834 180.931V195.128C220.834 196.952 219.357 198.429 217.533 198.429H157.25C155.427 198.429 153.95 196.952 153.95 195.128V180.931C153.95 179.108 155.427 177.631 157.25 177.631Z" fill="#F4F4F4"/>
<path d="M170.695 190.367C171.986 187.265 170.519 183.705 167.418 182.413C164.317 181.122 160.756 182.589 159.465 185.69C158.174 188.791 159.64 192.352 162.742 193.643C165.843 194.934 169.403 193.468 170.695 190.367Z" fill="#389379" stroke="#266A57" stroke-width="0.5"/>
<path d="M161.161 192.348C162.194 193.29 163.565 193.87 165.08 193.87C166.595 193.87 167.958 193.29 168.998 192.348C168.878 190.826 167.906 189.553 166.549 189.01C167.13 188.565 167.514 187.872 167.514 187.089C167.514 185.747 166.429 184.662 165.087 184.662C163.746 184.662 162.661 185.747 162.661 187.089C162.661 187.872 163.045 188.565 163.626 189.01C162.269 189.553 161.297 190.826 161.177 192.348H161.161Z" fill="#F4F4F4"/>
<path d="M206.223 184.994H175.139V186.109H206.223V184.994Z" fill="#E9E9EB"/>
<path d="M215.536 187.48H175.139V188.596H215.536V187.48Z" fill="#E9E9EB"/>
<path d="M215.536 189.967H175.139V191.082H215.536V189.967Z" fill="#E9E9EB"/>
<path d="M190.436 206.656H155.593C154.681 206.656 153.943 207.395 153.943 208.307V214.546C153.943 215.457 154.681 216.196 155.593 216.196H190.436C191.348 216.196 192.087 215.457 192.087 214.546V208.307C192.087 207.395 191.348 206.656 190.436 206.656Z" fill="#B1F2E0"/>
<path d="M190.436 220.137H155.593C154.681 220.137 153.943 220.876 153.943 221.787V228.026C153.943 228.938 154.681 229.677 155.593 229.677H190.436C191.348 229.677 192.087 228.938 192.087 228.026V221.787C192.087 220.876 191.348 220.137 190.436 220.137Z" fill="#B1F2E0"/>
<path d="M190.436 233.617H155.593C154.681 233.617 153.943 234.356 153.943 235.267V241.507C153.943 242.418 154.681 243.157 155.593 243.157H190.436C191.348 243.157 192.087 242.418 192.087 241.507V235.267C192.087 234.356 191.348 233.617 190.436 233.617Z" fill="#B1F2E0"/>
<path d="M234.39 220.137H199.546C198.635 220.137 197.896 220.876 197.896 221.787V228.026C197.896 228.938 198.635 229.677 199.546 229.677H234.39C235.302 229.677 236.04 228.938 236.04 228.026V221.787C236.04 220.876 235.302 220.137 234.39 220.137Z" fill="#266A57"/>
<path d="M234.39 233.617H199.546C198.635 233.617 197.896 234.356 197.896 235.267V241.507C197.896 242.418 198.635 243.157 199.546 243.157H234.39C235.302 243.157 236.04 242.418 236.04 241.507V235.267C236.04 234.356 235.302 233.617 234.39 233.617Z" fill="#B1F2E0"/>
<path d="M398.586 224.908H363.743C362.831 224.908 362.093 225.647 362.093 226.558V232.798C362.093 233.709 362.831 234.448 363.743 234.448H398.586C399.498 234.448 400.237 233.709 400.237 232.798V226.558C400.237 225.647 399.498 224.908 398.586 224.908Z" fill="#266A57"/>
<path d="M398.586 238.389H363.743C362.831 238.389 362.093 239.128 362.093 240.039V246.278C362.093 247.19 362.831 247.928 363.743 247.928H398.586C399.498 247.928 400.237 247.19 400.237 246.278V240.039C400.237 239.128 399.498 238.389 398.586 238.389Z" fill="#266A57"/>
<path d="M398.586 251.871H363.743C362.831 251.871 362.093 252.61 362.093 253.521V259.761C362.093 260.672 362.831 261.411 363.743 261.411H398.586C399.498 261.411 400.237 260.672 400.237 259.761V253.521C400.237 252.61 399.498 251.871 398.586 251.871Z" fill="#266A57"/>
<path d="M231.338 174.691C229.62 218.193 209.388 222.594 231.338 253.979C253.289 285.356 328.891 274.241 330.18 250.482C331.468 226.723 315.501 212.413 325.96 182.686C336.419 152.959 231.338 174.691 231.338 174.691Z" fill="#0D0D17"/>
<path d="M236.967 186.267C234.42 206.04 227.631 225.534 231.119 236.256C231.119 236.256 231.504 224.2 233.757 221.291C233.757 221.291 231.504 238.216 238.406 251.945C245.309 265.675 319.834 263.06 319.834 263.06C319.834 263.06 321.356 248.027 319.834 237.131C318.311 226.234 315.403 222 314.566 216.167C314.566 216.167 319.163 225.654 320.949 229.286C322.735 232.918 322.976 238.238 322.976 238.238C322.976 238.238 323.458 228.555 319.683 221.148C315.908 213.741 318.168 193.312 319.291 185.37C320.406 177.428 266.724 168.008 260.884 171.188C255.044 174.376 236.967 186.267 236.967 186.267Z" fill="#0D0D17"/>
<path d="M254.276 239.971C228.377 248.743 209.795 252.051 204.422 268.975C199.057 285.907 191.529 305.153 191.529 305.153H366.689C366.689 305.153 358.016 265.26 348.521 258.652C339.027 252.043 301.862 240.974 290.506 239.082C279.151 237.183 254.269 239.971 254.269 239.971H254.276Z" fill="#F1F0F2"/>
<path d="M325.674 278.318C325.674 278.318 326.337 294.203 324.016 305.159H329.954L325.674 278.318Z" fill="#DCEDFF"/>
<path d="M233.509 284.572C233.509 284.572 233.004 296.749 234.782 305.151H230.231L233.509 284.572Z" fill="#DCEDFF"/>
<path d="M212.681 264.137C214.949 258.154 222.273 251.131 222.281 251.123C213.389 255.207 207.173 260.301 204.422 268.974C199.057 285.906 191.529 305.152 191.529 305.152H205.658C205.04 287.12 210.405 270.127 212.673 264.137H212.681Z" fill="#F1F0F2"/>
<path d="M285.97 272.9C285.97 272.9 273.378 272.071 265.737 266.292C258.097 260.512 259.129 254.732 259.129 254.732C259.129 254.732 253.553 255.147 251.488 254.732C249.423 254.318 252.385 232.812 264.426 232.413C276.468 232.021 301.689 237.017 304.786 237.182C307.883 237.348 318.101 246.504 315.516 258.108C315.102 259.969 310.113 254.732 307.845 257.415C305.577 260.098 303.716 271.453 285.962 272.9H285.97Z" fill="#52CFAC"/>
<path d="M281.796 269.434C281.796 269.434 266.672 259.284 259.86 239.36C258.782 236.21 260.606 234.447 263.944 233.912L281.796 269.434Z" fill="#52CFAC"/>
<path d="M286.61 272.493C295.464 266.826 303.625 252.886 306.097 248.244C308.576 243.602 308.674 239.224 301.086 238.418C293.498 237.612 286.603 272.493 286.603 272.493H286.61Z" fill="#52CFAC"/>
<path d="M302.224 210.153C299.941 228.57 298.637 238.418 304.793 246.059C304.793 246.059 293.814 268.356 285.97 272.9C285.97 272.9 267.184 259.48 262.022 238.011C262.022 238.011 265.12 233.264 265.534 226.241C265.948 219.226 264.916 207.041 264.916 207.041L302.224 210.153Z" fill="#FFCFBE"/>
<path d="M297.416 259.246C285.963 273.118 274.155 261.408 269.769 255.463C277.011 266.495 285.97 272.9 285.97 272.9C289.58 270.812 293.852 264.957 297.416 259.253V259.246Z" fill="#52CFAC"/>
<path d="M265.534 226.241C265.18 232.247 262.866 236.587 262.203 237.71C270.703 236.203 288.931 232.707 300.362 228.63C300.543 223.581 301.304 217.561 302.216 210.153L279.459 208.254L264.931 207.312C265.082 209.129 265.903 219.836 265.526 226.241H265.534Z" fill="#FCC1AD"/>
<path d="M331.898 163.231C332.629 151.618 332.817 141.046 323.752 127.498C314.687 113.949 316.601 149.697 316.752 150.104C316.903 150.511 324.785 165.589 324.785 165.589L331.891 163.231H331.898Z" fill="#564A4D"/>
<path d="M326.782 181.617C325.629 188.293 326.413 193.809 329.615 194.366C332.818 194.917 336.344 189.951 337.497 183.274C338.65 176.598 336.985 170.735 333.782 170.178C330.58 169.628 327.935 174.94 326.782 181.617Z" fill="#9898A3"/>
<path d="M333.043 185.897L331.024 186.718L329.05 192.196C329.05 192.196 328.718 192.874 328.304 193.748C328.688 194.057 329.118 194.276 329.615 194.366C332.456 194.856 335.545 191.006 337.015 185.475C334.468 186.801 333.043 185.904 333.043 185.904V185.897Z" fill="#9898A3"/>
<path d="M323.82 161.061C326.307 160.601 333.352 162.47 334.151 166.109C335.967 174.383 332.946 193.584 327.407 198.323C325.388 200.049 319.759 199.702 317.762 199.084C312.69 197.532 312.675 189.424 314.529 178.679C316.383 167.933 320.377 161.701 323.82 161.061Z" fill="#564A4D"/>
<path d="M333.044 185.896C330.466 187.758 329.125 185.896 329.125 185.896C327.377 189.611 324.167 189.611 320.105 190.162L317.83 188.956C317.83 188.956 315.607 190.591 313.527 192.068C313.904 195.768 315.17 198.285 317.762 199.083C319.759 199.694 325.388 200.048 327.407 198.322C329.833 196.243 331.785 191.39 333.051 185.896H333.044Z" fill="#564A4D"/>
<path d="M334.151 166.109C333.352 162.47 326.307 160.601 323.82 161.061C323.617 161.098 323.406 161.159 323.195 161.234C327.746 160.895 330.135 164.082 330.655 167.737C331.175 171.392 330.655 187.909 325.297 195.196C324.611 196.123 323.428 198.843 319.449 199.416C321.981 199.747 325.809 199.68 327.407 198.316C332.953 193.576 335.975 174.376 334.151 166.102V166.109Z" fill="#52CFAC"/>
<path d="M333.043 185.896C330.466 187.757 329.125 185.896 329.125 185.896C328.273 189.468 327.045 192.821 325.297 195.195C324.611 196.122 323.428 198.842 319.449 199.415C321.981 199.746 325.809 199.678 327.407 198.315C329.833 196.235 331.785 191.382 333.051 185.889L333.043 185.896Z" fill="#52CFAC"/>
<path d="M324.197 180.185C323.195 186.017 321.115 190.523 319.548 190.26C317.988 189.988 317.536 185.045 318.538 179.213C319.54 173.38 321.62 168.874 323.187 169.138C324.747 169.409 325.199 174.352 324.197 180.185Z" fill="#564A4D"/>
<path d="M246.153 198.731C246.221 198.904 246.296 199.07 246.371 199.243C248.911 205.098 253.492 211.194 257.976 215.761C264.6 222.512 273.589 228.375 283.114 229.656C293.355 231.027 302.751 225.331 309.601 218.021C312.751 214.66 315.207 210.516 316.225 205.995C317.302 201.195 316.722 196.04 317.506 191.135C317.928 188.498 318.99 186.011 319.879 183.494C322.615 175.77 323.986 167.127 323.044 158.816C322.652 155.364 322.087 150.414 320.218 147.422C318.071 143.978 313.097 141.273 309.744 139.171C298.991 132.442 284.742 129.978 272.527 133.783C260.041 137.671 249.853 147.678 244.593 159.516C242.091 165.153 240.637 170.699 241.85 176.772C243.365 184.338 243.139 191.436 246.153 198.731Z" fill="#FFCFBE"/>
<path d="M263.401 170.683C264.81 169.989 266.272 169.402 267.779 168.882C269.287 168.384 270.854 168 272.466 167.812C274.064 167.616 275.744 167.382 277.357 167.797C279.685 168.43 280.612 168.897 281.742 169.974L281.667 170.185C280.823 170.238 280.047 170.185 279.271 170.155L277.01 170.035C275.533 169.982 274.087 169.62 272.579 169.62C271.08 169.62 269.565 169.756 268.043 169.989C266.521 170.2 265.006 170.555 263.477 170.901L263.401 170.69V170.683Z" fill="#0C0835"/>
<path d="M313.911 171.164C312.464 170.546 310.965 170.124 309.435 169.913C307.913 169.687 306.383 169.62 304.861 169.687C303.331 169.755 301.862 170.17 300.355 170.26C298.84 170.366 297.326 170.516 295.63 170.463L295.555 170.252C296.836 169.13 298.381 168.459 299.971 168.037C301.576 167.593 303.264 167.751 304.891 167.886C306.526 168.014 308.147 168.316 309.691 168.828C311.229 169.356 312.721 170.034 314.017 170.983L313.904 171.179L313.911 171.164Z" fill="#0C0835"/>
<path d="M272.843 182.386C273.659 182.386 274.32 181.036 274.32 179.372C274.32 177.707 273.659 176.357 272.843 176.357C272.028 176.357 271.366 177.707 271.366 179.372C271.366 181.036 272.028 182.386 272.843 182.386Z" fill="#0C0835"/>
<path d="M303.867 182.528C304.649 182.528 305.283 181.179 305.283 179.514C305.283 177.849 304.649 176.5 303.867 176.5C303.084 176.5 302.45 177.849 302.45 179.514C302.45 181.179 303.084 182.528 303.867 182.528Z" fill="#0C0835"/>
<path d="M292.857 193.861C292.428 194.984 291.689 196.016 290.672 196.657C289.647 197.297 288.328 197.493 287.213 197.019C285.42 196.265 284.93 194.17 287.364 194.645C288.313 194.826 289.218 194.939 290.19 194.803C290.687 194.735 292.639 194.419 292.857 193.861Z" fill="#FBBBA4"/>
<path d="M275.096 202.06C281.238 202.859 296.03 203.213 300.86 202.972C298.885 209.528 294.018 215.956 287.356 215.714C280.522 215.473 276.543 208.887 275.096 202.053V202.06Z" fill="#C31F2A"/>
<path d="M295.419 212.315C290.273 207.982 286.558 211.69 286.558 211.69C285.382 210.891 282.142 209.55 279.294 211.471C280.869 213.393 282.843 214.817 285.239 215.412C285.985 215.51 286.761 215.616 287.537 215.714C290.582 215.766 293.242 214.418 295.419 212.315Z" fill="#FB8384"/>
<path d="M276.694 202.234C276.799 203.335 277.01 204.42 277.342 205.475C283.988 207.916 291.426 208.3 298.26 206.552C298.509 205.407 298.697 204.224 298.833 203.033C293.287 203.116 282.654 202.822 276.694 202.234Z" fill="white"/>
<path d="M314.823 214.818C314.326 214.856 313.836 214.849 313.361 214.781C308.674 214.148 306.157 213.794 306.157 213.794L306.444 211.737C306.444 211.737 308.953 212.083 313.64 212.724C317.958 213.311 323.496 206.454 324.958 198.384C325.056 197.826 325.561 197.442 326.126 197.517C326.706 197.593 327.113 198.135 327.015 198.708C325.501 207.223 319.909 214.412 314.83 214.811L314.823 214.818Z" fill="#9898A3"/>
<path d="M306.277 214.969L302.163 214.404C300.746 214.208 299.752 212.904 299.948 211.48C300.144 210.064 301.447 209.069 302.871 209.265L306.986 209.83C308.402 210.026 309.397 211.33 309.201 212.754C309.005 214.17 307.702 215.165 306.277 214.969Z" fill="#52CFAC"/>
<path d="M308.598 210.719C308.606 210.885 308.598 211.058 308.583 211.231C308.387 212.648 307.084 213.642 305.66 213.447L302.058 212.957C301.078 212.821 300.317 212.15 299.993 211.291C299.978 211.352 299.955 211.412 299.948 211.48C299.752 212.896 300.746 214.208 302.163 214.404L306.277 214.969C307.694 215.165 309.005 214.17 309.201 212.753C309.307 211.992 309.058 211.269 308.598 210.726V210.719Z" fill="#52CFAC"/>
<path d="M300.634 143.564C300.634 143.564 321.281 152.237 321.484 180.517C321.484 180.517 338.002 162.35 328.296 135.102C318.591 107.854 290.514 108.886 290.514 108.886L300.626 143.571L300.634 143.564Z" fill="#0D0D17"/>
<path d="M300.634 143.563C300.634 143.563 320.768 152.04 321.454 179.514C321.454 179.356 321.454 179.206 321.454 179.04C321.115 151.317 311.507 143.955 302.013 138.906L299.752 140.526L300.634 143.563Z" fill="#0D0D17"/>
<path d="M242.483 168.747C242.483 168.747 299.39 172.047 303.934 143.149C308.478 114.243 293.89 107.235 286.731 106.542C279.572 105.849 265.632 104.191 253.696 115.765C241.767 127.34 228.452 134.348 229.929 171.783L242.476 168.754L242.483 168.747Z" fill="#0D0D17"/>
<path d="M241.3 160.918C243.779 159.539 246.258 158.122 248.655 156.555C251.066 155.018 253.432 153.397 255.745 151.702C260.387 148.319 264.871 144.702 269.113 140.783C265.263 145.086 261.118 149.14 256.778 152.991C254.608 154.92 252.377 156.781 250.086 158.574C247.811 160.39 245.422 162.078 243.011 163.736L241.3 160.91V160.918Z" fill="#0D0D17"/>
<path d="M273.65 118.215C260.161 125.509 245.332 143.051 245.045 157.587C245.045 157.587 239.341 152.297 242.34 144.709C245.339 137.121 254.171 128.712 259.061 125.102C263.952 121.493 273.65 118.222 273.65 118.222V118.215Z" fill="#0D0D17"/>
<path d="M245.874 162.53C244.066 157.851 245.309 141.868 245.874 137.332C246.439 132.788 248.12 129.329 248.301 128.478C248.481 127.626 248.09 127.37 248.09 127.37C257.479 112.917 270.801 110.853 284.312 106.625L283.536 106.241C275.903 105.638 264.042 105.721 253.703 115.758C241.775 127.333 228.46 134.34 229.937 171.776L242.483 168.747C242.483 168.747 261.947 169.87 279.015 165.032C260.033 168.762 247.675 167.217 245.874 162.53Z" fill="#0D0D17"/>
<path d="M296.889 143.059C291.312 151.77 284.41 159.893 258.059 163.675C240.501 166.2 237.728 162.598 237.728 162.598C237.728 162.598 268.367 160.556 280.748 154.279C293.128 147.994 296.889 143.066 296.889 143.066V143.059Z" fill="#0D0D17"/>
<path d="M246.402 128.056C249.815 118.079 266.905 106.813 286.731 106.535C286.731 106.535 276.543 104.055 264.713 108.464C252.874 112.864 244.359 120.053 239.672 128.161C234.985 136.269 246.409 128.063 246.409 128.063L246.402 128.056Z" fill="#564A4D"/>
<path d="M263.673 111.161C252.837 115.494 246.816 124.68 246.816 124.68C246.274 124.748 241.323 125.667 241.248 125.682C240.682 126.496 240.155 127.317 239.665 128.154C239.499 128.447 239.356 128.711 239.228 128.96C240.78 128.854 243.048 128.749 243.651 129.013C243.9 129.118 244.39 129.088 245.158 128.9C245.904 128.41 246.402 128.048 246.402 128.048C249.815 118.071 266.905 106.806 286.731 106.527C280.062 106.444 274.509 106.821 263.673 111.154V111.161Z" fill="#564A4D"/>
<path d="M243.757 163.23C242.822 144.693 245.445 132.048 247.781 128.605C250.117 125.161 240.517 126.66 238.595 129.358C237.344 131.106 233.124 145.853 234.669 163.35C236.214 180.847 243.757 163.222 243.757 163.222V163.23Z" fill="#564A4D"/>
<path d="M246.055 126.609C246.876 126.918 247.118 127.333 246.537 128.229C245.95 129.126 243.546 136.971 242.928 143.888C242.31 150.806 242.619 158.062 242.483 158.891C242.348 159.72 236.289 161.242 234.466 160.413C234.518 161.385 234.586 162.372 234.677 163.367C234.79 164.656 234.94 165.756 235.114 166.683C236.952 166.886 239.507 166.984 241.835 167.014C242.966 165.1 243.764 163.231 243.764 163.231C242.83 144.694 245.452 132.05 247.788 128.606C248.738 127.212 247.728 126.632 246.063 126.609H246.055Z" fill="#564A4D"/>
<path d="M242.159 162.334C239.733 161.619 232.536 162.756 231.361 166.291C228.701 174.338 229.726 193.749 234.759 199.032C236.59 200.961 242.227 201.187 244.277 200.78C249.476 199.755 250.327 191.7 249.597 180.811C248.858 169.93 245.527 163.322 242.167 162.327L242.159 162.334Z" fill="#564A4D"/>
<path d="M234.752 199.031C236.583 200.96 242.219 201.186 244.269 200.779C247.261 200.192 248.805 197.268 249.446 192.837C246.944 194.985 240.547 194.299 237.314 192.837C237.314 192.837 237.841 183.177 236.131 177.729C236.131 177.729 233.071 184.48 231.21 190.757C232.009 194.374 233.184 197.396 234.752 199.039V199.031Z" fill="#564A4D"/>
<path d="M241.277 181.376C241.933 191.096 239.642 199.167 236.153 199.4C232.664 199.634 229.304 191.948 228.648 182.227C227.992 172.506 230.283 164.436 233.772 164.202C237.261 163.969 240.622 171.655 241.277 181.376Z" fill="#52CFAC"/>
<path d="M236.832 185.469C236.832 185.469 232.371 186.026 230.653 192.771C232.092 196.923 234.096 199.545 236.153 199.409C237.932 199.289 239.394 197.134 240.313 193.773C239.183 193.532 238.143 193.215 237.314 192.838C237.314 192.838 237.706 191.263 236.824 185.476L236.832 185.469Z" fill="#52CFAC"/>
<path d="M236.734 182.514C237.223 189.793 235.912 195.603 232.665 195.821C229.424 196.04 226.395 190.313 225.905 183.034C225.416 175.755 227.646 169.674 230.886 169.455C234.126 169.236 236.244 175.227 236.734 182.506V182.514Z" fill="#9898A3"/>
<path d="M231.851 193.306C230.374 193.404 228.927 192.529 227.654 190.955C228.942 194.029 230.766 195.95 232.665 195.822C235.453 195.634 236.809 191.309 236.824 185.469C236.131 190.065 234.488 193.125 231.851 193.306Z" fill="#9898A3"/>
<path d="M117.758 223.023H65.2739C62.4232 223.023 60.1122 225.334 60.1122 228.185V255.478C60.1122 258.329 62.4232 260.64 65.2739 260.64H117.758C120.609 260.64 122.92 258.329 122.92 255.478V228.185C122.92 225.334 120.609 223.023 117.758 223.023Z" fill="#44B092"/>
<path d="M119.529 260.64H63.5032C61.6345 260.64 60.1123 259.125 60.1123 257.249L91.5123 236.406L122.912 257.249C122.912 259.118 121.398 260.64 119.521 260.64H119.529Z" fill="#52CFAC"/>
<path d="M119.529 223.023H63.5031C61.6343 223.023 60.1122 224.538 60.1122 226.414L91.5121 247.257L122.912 226.414C122.912 224.546 121.397 223.023 119.521 223.023H119.529Z" fill="#4BBE9E"/>
<path d="M470.512 86.5957H345.176C341.272 86.5957 338.107 89.7606 338.107 93.6639V122.977C338.107 126.88 341.272 130.045 345.176 130.045H357.767L353.48 140.632L367.744 130.045H470.519C474.423 130.045 477.587 126.88 477.587 122.977V93.6639C477.587 89.7606 474.423 86.5957 470.519 86.5957H470.512Z" fill="#44B092"/>
<path d="M462.246 102.556H366.727C365.815 102.556 365.077 101.818 365.077 100.906C365.077 99.9943 365.815 99.2559 366.727 99.2559H462.246C463.157 99.2559 463.896 99.9943 463.896 100.906C463.896 101.818 463.157 102.556 462.246 102.556ZM463.896 108.321C463.896 107.409 463.157 106.671 462.246 106.671H353.457C352.545 106.671 351.807 107.409 351.807 108.321C351.807 109.233 352.545 109.971 353.457 109.971H462.246C463.157 109.971 463.896 109.233 463.896 108.321ZM416.136 115.743C416.136 114.832 415.398 114.093 414.486 114.093H353.457C352.545 114.093 351.807 114.832 351.807 115.743C351.807 116.655 352.545 117.394 353.457 117.394H414.486C415.398 117.394 416.136 116.655 416.136 115.743Z" fill="white"/>
<path d="M406.182 243.272C406.672 243.468 407.289 243.249 407.983 242.639L408.201 242.925C408.051 243.061 407.907 243.174 407.764 243.272C406.981 243.814 406.408 243.777 406.039 243.626" fill="white"/>
<path d="M408.963 242.21C409.143 242.511 408.963 242.978 408.556 243.264C408.149 243.543 407.682 243.528 407.501 243.227C407.32 242.925 407.501 242.451 407.908 242.172C408.315 241.893 408.782 241.908 408.963 242.21Z" fill="#1C1818"/>
<path d="M409.648 241.787C409.603 242.149 409.942 242.481 410.409 242.533C410.876 242.586 411.298 242.33 411.344 241.968C411.389 241.606 411.05 241.275 410.582 241.222C410.115 241.177 409.693 241.426 409.648 241.787Z" fill="#1C1818"/>
<path d="M428.419 219.836C420.71 221.268 422.225 237.717 420.71 245.23C419.881 249.337 422.285 247.521 421.855 251.643C421.607 254.047 420.522 259.623 423.762 260.58C430.89 262.69 432.827 244.733 432.857 241.01L428.411 219.836H428.419Z" fill="white"/>
<path d="M419.987 240.838C421.328 243.309 418.178 259.232 420.032 262.231C421.78 265.057 425.171 263.836 427.077 262.261C429.813 260.015 430.483 256.059 432.156 253.008L419.987 240.838Z" fill="white"/>
<path d="M419.685 240.537L419.986 240.839C419.904 240.688 419.806 240.582 419.685 240.537Z" fill="white"/>
<path d="M413.702 236.466C409.995 235.864 414.569 241.093 415.262 240.423L417.583 240.995C418.306 239.775 415.322 236.73 413.702 236.466Z" fill="#FFCFBE"/>
<path d="M419.384 237.053C418.095 236.36 416.95 239.284 416.354 239.751L418.472 240.338C419.18 240.203 420.529 237.671 419.384 237.053Z" fill="#FFCFBE"/>
<path d="M425.826 228.834C425.789 231.976 425.05 235.156 425.216 238.471C425.397 241.99 424.915 245.751 425.261 249.157L427.537 249.692C427.537 242.578 425.834 235.97 425.834 228.826L425.826 228.834Z" fill="#E6DFDD"/>
<path d="M435.276 357.871C435.374 359.356 436.165 361.91 436.564 363.711C436.836 364.954 436.828 369.325 437.619 370.116C440.543 373.047 440.618 360.674 440.566 359.325L435.276 357.871Z" fill="#E69873"/>
<path d="M440.423 366.905L437.793 366.589C436.549 365.006 435.969 366.853 435.442 367.614C431.003 373.996 443.09 363.725 432.661 369.724C431.048 370.65 427.047 371.351 427.59 373.996C430.815 374.32 437.521 374.403 440.875 373.958C442.314 373.77 441.176 372.564 440.844 370.462C440.611 369.015 440.724 368.307 440.43 366.898L440.423 366.905Z" fill="#389379"/>
<path d="M432.503 333.75C432.571 335.845 433.061 340.419 433.633 345.347C434.53 353.026 435.645 361.571 435.758 362.912L440.551 362.95C441.824 357.329 442.781 351.481 443.867 345.935C444.477 342.8 445.11 339.605 445.577 336.388C446.451 330.36 446.76 324.241 445.359 318.182C444.311 313.654 445.999 300.761 446.089 295.983C446.172 291.258 443.889 293.18 445.901 288.938L432.435 295.855C432.82 299.389 432.887 302.938 433.189 306.525C434.123 317.421 432.119 322.606 432.503 333.75Z" fill="#52CFAC"/>
<path d="M433.633 345.348C434.53 353.027 435.645 361.572 435.758 362.913L440.551 362.951C441.824 357.33 442.781 351.482 443.866 345.936C444.477 342.801 445.11 339.606 445.577 336.389C445.23 337.383 444.823 338.355 444.371 339.305C442.457 343.284 438.916 346.381 434.425 345.529C434.168 345.476 433.905 345.416 433.641 345.348H433.633Z" fill="#52CFAC"/>
<path d="M453.497 357.861C453.542 359.353 454.25 361.938 454.582 363.746C454.815 364.997 454.65 369.368 455.411 370.189C458.229 373.226 458.734 360.868 458.734 359.519L453.497 357.861Z" fill="#E69873"/>
<path d="M456.586 365.684C454.732 365.488 454.386 367.116 454.054 367.892C453.662 368.811 453.029 369.09 452.419 369.633C456.224 366.234 449.458 375.714 449.126 373.996C451.372 374.267 457 374.463 459.291 373.958C460.278 373.74 459.638 373.039 458.764 370.74C458.251 369.384 458.327 365.865 456.578 365.684H456.586Z" fill="#389379"/>
<path d="M448.387 307.608C449.925 318.429 448.214 323.727 449.216 334.826C449.473 337.629 450.286 341.616 451.078 345.549C451.801 349.121 452.502 352.64 452.75 355.172C452.946 357.199 453.203 361.291 453.504 363.483H458.877C459.841 357.794 460.467 351.894 461.243 346.288C461.763 342.512 462.305 338.662 462.562 334.789C462.931 329.333 462.742 323.84 461.183 318.49C459.879 314.036 460.55 302.635 460.369 297.858C460.188 293.14 458.319 293.615 460.097 289.26L447.039 296.999C447.619 300.503 447.883 304.044 448.387 307.601V307.608Z" fill="#52CFAC"/>
<path d="M451.077 345.55C451.801 349.121 452.502 352.64 452.75 355.172C452.946 357.199 453.202 361.291 453.504 363.484H458.877C459.841 357.795 460.466 351.894 461.243 346.288C461.763 342.513 462.305 338.662 462.561 334.789C459.947 340.81 455.749 346.326 451.077 345.55Z" fill="#52CFAC"/>
<path d="M464.453 265.493C464.754 284.844 465.5 305.566 464.95 306.184C464.483 306.719 450.746 309.138 440.52 306.456C439.797 303.019 438.343 295.853 437.981 292.598C437.974 292.628 437.966 292.658 437.958 292.688C437.77 293.517 437.589 294.504 437.431 295.575C436.881 299.282 436.557 304.022 436.542 306.712C432.849 308.053 430.513 307.149 428.584 306.983C428.215 302.989 427.801 294.15 427.431 283.608C427.349 281.205 427.266 278.703 427.183 276.156C426.437 251.96 425.985 223.107 426.723 221.615C427.567 219.904 430.039 219.128 431.651 218.179C433.332 217.184 434.974 216.008 436.617 215.006L448.937 211.796L449.442 211.668C451.025 212.595 452.863 213.356 454.491 213.974C455.93 214.524 457.196 214.953 457.965 215.285C460.323 216.31 463.217 217.154 465.063 219.038C468.763 222.805 465.794 229.67 465.033 234.5C464.37 238.735 464.257 248.418 464.37 259.344C464.393 261.356 464.415 263.413 464.453 265.486V265.493Z" fill="white"/>
<path d="M451.326 212.858C449.473 215.383 447.649 217.997 445.795 220.605C443.354 224.041 440.875 227.462 438.237 230.672C437.002 227.839 436.143 224.613 435.562 221.366C435.344 220.137 435.163 218.902 435.02 217.688C434.854 216.287 434.726 214.908 434.643 213.582L442.42 205.835L445.057 203.213C444.921 203.499 444.861 203.876 444.861 204.29C444.861 204.954 445.019 205.737 445.253 206.491C445.577 207.531 446.059 208.525 446.526 209.121C447.74 210.688 449.759 211.803 451.334 212.866L451.326 212.858Z" fill="#FFCFBE"/>
<path d="M441.591 218.359C438.78 220.823 436.549 219.783 435.012 217.681C434.846 216.279 434.718 214.9 434.635 213.574L442.412 205.828L444.853 204.275C445.042 204.69 445.185 205.474 445.238 206.476C445.434 209.829 444.68 215.631 441.583 218.351L441.591 218.359Z" fill="#FBBBA4"/>
<path d="M445.795 220.613C443.354 224.049 440.875 227.47 438.237 230.681C437.002 227.847 436.142 224.622 435.562 221.374C437.318 221.804 439.631 221.834 440.89 221.766C442.653 221.676 444.228 221.156 445.795 220.621V220.613Z" fill="#389379"/>
<path d="M454.559 213.816C454.536 213.869 454.514 213.921 454.491 213.974C453.685 215.926 452.532 218.804 451.537 220.643C451.032 221.577 450.55 223.017 449.442 223.198C448.531 223.348 447.257 222.361 446.345 222.278C446.232 224.343 448.267 225.051 446.466 226.814C444.959 228.291 439.564 230.959 438.802 232.88C436.338 239.142 436.376 271.944 437.959 292.681C437.77 293.51 437.589 294.497 437.431 295.567C434.115 272.735 436.143 235.322 437.228 232.579C438.742 228.759 447.423 214.713 448.938 211.789C449.103 211.472 449.186 211.284 449.156 211.254L454.551 213.801L454.559 213.816Z" fill="#E9E9EB"/>
<path d="M437.401 227.892C436.986 226.52 436.572 225.088 436.308 223.679C435.879 221.434 434.869 217.621 435.494 215.398L433.935 214.057C432.548 216.807 430.966 220.145 430.408 222.963C431.056 222.873 431.727 222.948 432.375 222.979C431.666 223.83 430.74 224.531 430.755 225.548C430.77 226.498 431.614 227.974 432.277 228.758C433.671 230.401 436.15 231.403 438.207 231.72C438.682 230.763 437.702 228.886 437.401 227.907V227.892Z" fill="#E9E9EB"/>
<path d="M429.662 192.814H425.231C419.482 193.666 424.779 200.787 426.927 203.259C426.316 199.415 427.432 196.077 429.662 192.814Z" fill="#0D0D17"/>
<path d="M444.288 201.232C443.889 197.562 443.377 192.988 440.686 189.989C438.2 187.224 432.179 187.239 429.203 189.19C428.223 189.831 426.565 191.3 426.324 192.431L425.224 194.503C425.39 196.296 425.164 198.73 425.367 200.72C425.571 202.724 426.294 204.254 426.972 206.055C428.336 209.664 429.707 212.482 432.624 215.346C436.052 218.714 439.865 215.512 441.809 213.145C445.652 208.481 444.71 205.203 444.281 201.232H444.288Z" fill="#FFCFBE"/>
<path d="M439.451 202.151C439.353 202.739 438.938 203.228 438.396 203.56C437.22 204.298 435.457 204.314 435.118 203.07C435.118 203.07 435.54 201.947 436.58 201.714C436.738 201.676 436.889 201.646 437.047 201.616C437.861 201.465 438.629 201.458 439.451 202.143V202.151Z" fill="#ECECEC"/>
<path d="M437.055 201.623C436.904 201.653 436.746 201.683 436.587 201.721C436.022 201.849 435.638 202.233 435.404 202.565C435.6 202.919 435.661 203.364 435.57 203.756C436.256 204.276 437.499 204.132 438.396 203.567C438.29 203.273 438.14 202.964 437.951 202.67C437.688 202.248 437.371 201.894 437.047 201.623H437.055Z" fill="#231E20"/>
<path d="M436.406 201.156C435.359 201.39 435.125 203.07 435.125 203.07C435.947 204.005 439.059 202.807 439.451 202.151C438.478 201.33 437.401 200.93 436.406 201.156Z" fill="#FFCFBE"/>
<path d="M430.672 204.035C430.679 204.585 430.401 205.037 429.986 205.346C429.082 206.024 427.56 206.009 427.062 204.834C427.062 204.834 427.243 203.786 428.11 203.583C428.238 203.553 428.374 203.522 428.494 203.5C429.18 203.372 429.843 203.372 430.664 204.035H430.672Z" fill="#ECECEC"/>
<path d="M428.509 203.492C428.381 203.515 428.253 203.545 428.125 203.575C427.65 203.688 427.386 204.042 427.236 204.351C427.462 204.69 427.582 205.105 427.575 205.474C428.253 205.979 429.308 205.858 429.994 205.346C429.858 205.067 429.677 204.781 429.466 204.494C429.165 204.095 428.841 203.756 428.517 203.492H428.509Z" fill="#231E20"/>
<path d="M427.876 203.048C427.01 203.251 427.07 204.834 427.07 204.834C427.937 205.723 430.446 204.653 430.679 204.035C429.7 203.244 428.705 202.852 427.876 203.048Z" fill="#FFCFBE"/>
<path d="M434.342 201.465C435.155 201.134 435.984 200.84 436.843 200.666C437.695 200.493 438.554 200.38 439.42 200.35C439.42 199.996 439.405 199.634 439.405 199.28C438.343 199.099 435.713 199.287 434.922 199.581C433.889 199.966 433.987 200.508 434.274 201.495C434.296 201.488 434.319 201.473 434.342 201.465Z" fill="#414042"/>
<path d="M429.722 202.279C429.067 202.197 428.411 202.151 427.763 202.234C427.123 202.31 426.49 202.453 425.879 202.679C425.789 202.34 425.698 201.993 425.608 201.654C426.301 201.179 428.185 200.599 428.81 200.652C429.632 200.72 429.707 201.27 429.775 202.287C429.76 202.287 429.737 202.287 429.722 202.279Z" fill="#414042"/>
<path d="M433.091 209.544C433.46 207.735 432.608 204.359 432.608 204.359C432.608 205.429 432.608 206.492 432.495 207.547C432.397 208.466 432.066 209.348 431.87 210.267C432.993 210.689 435.314 210.109 435.833 209.107C435.283 209.016 433.965 209.107 433.083 209.544H433.091Z" fill="#FFCFBE"/>
<path d="M430.943 211.398C430.943 211.398 430.973 211.421 431.019 211.458C431.071 211.496 431.139 211.549 431.245 211.609C431.343 211.669 431.471 211.73 431.614 211.79C431.765 211.85 431.93 211.903 432.119 211.956C432.496 212.054 432.955 212.121 433.437 212.129C433.558 212.129 433.679 212.129 433.799 212.114C433.92 212.106 434.033 212.091 434.168 212.069C434.41 212.031 434.666 211.971 434.914 211.895C435.163 211.828 435.412 211.737 435.645 211.647C435.886 211.549 436.113 211.451 436.331 211.338C436.768 211.119 437.152 210.878 437.454 210.644C437.605 210.524 437.74 210.411 437.853 210.298C437.966 210.185 438.049 210.079 438.117 209.989C438.185 209.898 438.23 209.823 438.26 209.77C438.29 209.718 438.305 209.688 438.305 209.688C438.305 209.688 438.305 209.718 438.29 209.778C438.275 209.838 438.253 209.929 438.215 210.034C438.17 210.14 438.109 210.275 438.019 210.411C437.929 210.547 437.816 210.697 437.68 210.848C437.401 211.149 437.024 211.458 436.58 211.722C436.354 211.858 436.12 211.978 435.864 212.091C435.615 212.204 435.344 212.295 435.08 212.378C434.809 212.453 434.538 212.513 434.244 212.551C434.116 212.566 433.965 212.581 433.822 212.581C433.679 212.581 433.543 212.581 433.407 212.566C433.136 212.543 432.887 212.498 432.646 212.438C432.413 212.378 432.194 212.302 431.998 212.219C431.802 212.137 431.636 212.039 431.493 211.941C431.35 211.85 431.245 211.752 431.154 211.669C431.071 211.586 431.011 211.511 430.973 211.458C430.936 211.406 430.921 211.375 430.921 211.375L430.943 211.398Z" fill="#414042"/>
<path d="M443.829 202.468C443.135 200.644 440.114 195.58 439.126 194.035C437.845 192.046 436.444 193.975 435.005 194.751C425.638 199.8 423.355 195.143 422.76 193.455C422.383 192.393 423.264 191.119 424.38 190.019C425.224 189.19 426.203 188.459 426.874 188.015C431.124 185.166 437.024 184.676 441.138 185.686C444.582 186.53 446.277 188.602 446.926 191.006C448.274 195.987 445.162 202.415 443.836 202.46L443.829 202.468Z" fill="#0D0D17"/>
<path d="M443.829 202.468C443.135 200.645 440.114 195.581 439.126 194.036C437.845 192.047 436.444 193.976 435.005 194.752C425.638 199.801 423.355 195.144 422.76 193.456C422.383 192.394 423.264 191.12 424.38 190.02C424.53 190.48 424.824 190.962 425.337 191.512C427.017 193.328 429.594 192.944 431.81 192.062C433.731 191.301 435.268 190.012 437.431 190.11C439.511 190.208 440.935 190.992 442.374 192.363C442.472 191.406 441.937 190.434 441.319 189.681C442.487 189.801 444.228 190.653 444.703 191.648C445.094 191.037 445.019 190.125 444.725 189.447C445.516 190.141 446.021 190.917 446.451 191.851C446.639 191.58 446.797 191.293 446.926 191C448.274 195.98 445.162 202.408 443.836 202.453L443.829 202.468Z" fill="#0D0D17"/>
<path d="M443.354 201.3C443.226 201.707 443.188 202.988 443.188 202.988C442.638 204.254 443.497 206.756 445.313 206.123C446.398 205.746 447.129 203.719 447.423 202.747C448.614 198.806 444.356 198.105 443.362 201.3H443.354Z" fill="#FFCFBE"/>
<path d="M443.949 202.56C444.575 202.062 445.238 202.635 445.125 203.343C445.034 203.923 443.708 203.969 443.708 203.969C444.288 204.609 445.697 204.549 446.104 203.419C446.413 202.567 445.524 200.819 444.477 201.731C444.492 200.939 445.788 199.726 446.549 200.51C445.306 199.025 443.233 201.113 443.949 202.56Z" fill="#FBBBA4"/>
<path d="M440.829 239.164C440.829 239.865 440.407 240.43 439.88 240.43C439.352 240.43 438.93 239.865 438.93 239.164C438.93 238.464 439.352 237.898 439.88 237.898C440.407 237.898 440.829 238.464 440.829 239.164Z" fill="#E6DFDD"/>
<path d="M440.829 263.082C440.829 263.783 440.407 264.348 439.88 264.348C439.352 264.348 438.93 263.783 438.93 263.082C438.93 262.382 439.352 261.816 439.88 261.816C440.407 261.816 440.829 262.382 440.829 263.082Z" fill="#E6DFDD"/>
<path d="M440.829 282.494C440.829 283.195 440.407 283.76 439.88 283.76C439.352 283.76 438.93 283.195 438.93 282.494C438.93 281.794 439.352 281.229 439.88 281.229C440.407 281.229 440.829 281.794 440.829 282.494Z" fill="#9898A3"/>
<path d="M417.688 252.886L409.309 239.255L410.153 238.486L436.12 239.18L444.695 261.959L443.655 263.225L417.688 252.886Z" fill="#1F2326"/>
<path d="M422.406 262.849L409.309 239.256L435.57 240.19L443.655 263.226L422.406 262.849Z" fill="#564A4D"/>
<path d="M464.453 265.495C457.362 267.71 444.22 263.016 439.933 260.25L464.37 259.354C464.392 261.365 464.415 263.423 464.453 265.495Z" fill="#E6DFDD"/>
<path d="M435.705 253.709C435.457 254.38 435.63 256.422 434.967 256.979C434.5 257.371 425.404 256.61 423.799 256.158C422.488 255.789 421.267 255.623 420.054 255.216C419.655 255.08 419.263 254.922 418.864 254.719C417.492 254.026 416.701 252.805 415.503 251.84C414.674 251.177 414.026 248.208 413.951 247.673C413.951 247.62 413.943 247.598 413.951 247.59C413.973 247.62 413.996 247.643 414.018 247.666C414.742 248.51 415.541 249.376 416.038 249.934C416.158 250.062 416.324 250.175 416.52 250.265C417.251 250.604 418.412 250.725 419.12 250.778C420.891 250.913 422.059 251.042 423.694 251.343C423.498 250.589 419.082 247.982 420.318 247.025C420.582 246.822 421.328 247.153 421.712 247.304C422.571 247.651 423.867 248.856 424.402 249.06C425.713 249.572 427.13 249.301 428.29 250.069C429.225 250.687 430.302 251.501 430.642 252.21L435.72 253.702L435.705 253.709Z" fill="#FFCFBE"/>
<path d="M465.124 257.114C463.36 250.709 457.543 251.048 451.65 251.651C448.591 251.967 435.08 253.821 433.656 252.284L431.621 259.45C432.39 259.45 446.76 262.298 452.856 262.909C456.157 263.233 459.171 263.225 462.516 263.21C464.596 263.203 466.721 262.381 467.023 260.429C467.234 259.066 465.47 258.35 465.131 257.114H465.124Z" fill="white"/>
<path d="M467.399 221.268C466.073 218.766 462.893 216.099 460.579 218.585C457.528 221.878 458.552 227.567 456.819 230.71L456.036 236.791C455.644 239.903 456.254 243.573 456.232 246.73C456.209 250.309 457.076 254.099 458.424 257.423C459.223 259.397 462.493 263.27 465.206 262.358C467.7 261.522 467.791 256.443 467.889 254.431C468.04 251.259 468.168 248.064 468.333 244.891C468.567 240.4 468.899 235.909 468.906 231.41C468.906 227.982 469.042 224.38 467.391 221.268H467.399Z" fill="white"/>
<path d="M463.421 255.901C463.104 253.64 461.07 250.166 458.681 249.337L460.007 226.807C459.442 230.024 458.492 234.139 458.304 238.969C458.161 242.548 456.586 248.976 455.84 249.872C454.627 251.334 441.666 252.291 439.36 252.909C442.917 253.271 456.737 251.432 457.875 252.058C458.937 252.645 459.917 254.718 460.535 255.712C460.346 254.168 459.563 252.721 458.703 251.327C460.406 252.329 462.84 253.927 463.413 255.893L463.421 255.901Z" fill="#E6DFDD"/>
<path d="M450.746 276.947C450.821 276.962 450.904 276.977 450.987 276.992C451.002 276.887 451.017 276.781 451.032 276.676L450.746 276.947Z" fill="#9898A3"/>
<path d="M450.987 276.993C450.671 279.864 452.901 285.244 456.654 285.855C461.687 286.676 461.68 279.894 462.057 276.699C458.869 277.777 454.438 277.649 450.987 276.986V276.993Z" fill="#E9E9EB"/>
<path d="M429.383 275.629C429.127 277.806 429.052 281.642 427.432 283.609C427.349 281.205 427.266 278.703 427.183 276.156C427.959 276.028 428.697 275.855 429.376 275.621L429.383 275.629Z" fill="#E9E9EB"/>
</svg>
