<svg width="20" height="16" viewBox="0 0 20 16" fill="none" xmlns="http://www.w3.org/2000/svg">
<path d="M19.4851 8.00011C19.4851 8.4485 19.1519 8.81906 18.7196 8.8777L18.5994 8.88579H0.885905C0.39676 8.88579 0.000230021 8.48926 0.000230021 8.00011C0.000230021 7.55173 0.333427 7.18117 0.765725 7.12253L0.885905 7.11444H18.5994C19.0885 7.11444 19.4851 7.51097 19.4851 8.00011Z" fill="#11111E"/>
<path d="M8.65503 14.4867C9.00165 14.8318 9.00286 15.3926 8.65773 15.7392C8.34397 16.0544 7.852 16.084 7.50472 15.8275L7.4052 15.7419L0.260759 8.6282C-0.0552939 8.31351 -0.0840452 7.81976 0.174518 7.47249L0.260706 7.37303L7.40515 0.258113C7.75174 -0.0870477 8.31251 -0.0858867 8.65767 0.260706C8.97146 0.57579 8.99902 1.06789 8.74104 1.41408L8.65508 1.51324L2.14121 8.00095L8.65503 14.4867Z" fill="#11111E"/>
</svg>
