<svg width="23" height="24" viewBox="0 0 23 24" fill="none" xmlns="http://www.w3.org/2000/svg">
<path d="M21.2709 23.25C18.5834 23.25 15.9638 22.6508 13.4121 21.4525C10.8605 20.2542 8.60004 18.6708 6.63087 16.7025C4.66171 14.7342 3.07837 12.4738 1.88087 9.92125C0.683374 7.36875 0.0842074 4.74917 0.083374 2.0625C0.083374 1.6875 0.208374 1.375 0.458374 1.125C0.708374 0.875 1.02087 0.75 1.39587 0.75H6.45837C6.75004 0.75 7.01046 0.84375 7.23962 1.03125C7.46879 1.21875 7.60421 1.45833 7.64587 1.75L8.45837 6.125C8.50004 6.41667 8.49462 6.6825 8.44212 6.9225C8.38962 7.1625 8.27004 7.37583 8.08337 7.5625L5.08337 10.625C5.95837 12.125 7.05212 13.5312 8.36462 14.8438C9.67712 16.1562 11.125 17.2917 12.7084 18.25L15.6459 15.3125C15.8334 15.125 16.0784 14.9846 16.3809 14.8912C16.6834 14.7979 16.98 14.7717 17.2709 14.8125L21.5834 15.6875C21.875 15.75 22.1146 15.8908 22.3021 16.11C22.4896 16.3292 22.5834 16.5842 22.5834 16.875V21.9375C22.5834 22.3125 22.4584 22.625 22.2084 22.875C21.9584 23.125 21.6459 23.25 21.2709 23.25Z" fill="#FDFCFD"/>
</svg>
