<svg width="26" height="26" viewBox="0 0 26 26" fill="none" xmlns="http://www.w3.org/2000/svg">
<path d="M12.6667 0.5C19.5704 0.5 25.1667 6.09625 25.1667 13C25.1667 19.9037 19.5704 25.5 12.6667 25.5C5.76294 25.5 0.166687 19.9037 0.166687 13C0.166687 6.09625 5.76294 0.5 12.6667 0.5ZM12.6667 5.5C12.3352 5.5 12.0172 5.6317 11.7828 5.86612C11.5484 6.10054 11.4167 6.41848 11.4167 6.75V13C11.4168 13.3315 11.5485 13.6494 11.7829 13.8837L15.5329 17.6337C15.7687 17.8614 16.0844 17.9874 16.4122 17.9846C16.7399 17.9817 17.0534 17.8503 17.2852 17.6185C17.517 17.3868 17.6484 17.0732 17.6513 16.7455C17.6541 16.4178 17.5281 16.102 17.3004 15.8662L13.9167 12.4825V6.75C13.9167 6.41848 13.785 6.10054 13.5506 5.86612C13.3161 5.6317 12.9982 5.5 12.6667 5.5Z" fill="#FDFCFD"/>
</svg>
