<svg width="228" height="46" viewBox="0 0 228 46" fill="none" xmlns="http://www.w3.org/2000/svg">
<path d="M17.0473 43.0425C18.1089 42.1185 19.1732 41.1974 20.2311 40.2693C20.81 39.7615 21.3783 39.2418 22.0533 38.6361C22.0927 39.3496 22.1476 39.9616 22.1561 40.5743C22.1738 41.8442 22.1561 43.1145 22.1761 44.3843C22.1826 44.801 22.0408 44.9795 21.6041 44.9765C19.633 44.9629 17.6616 44.9845 15.6908 44.9581C14.7981 44.9461 14.7587 44.8679 14.7567 44.0041C14.7474 39.8216 14.7386 35.6391 14.7285 31.4567C14.7263 30.562 14.7248 30.5133 13.8496 30.5011C11.948 30.4743 10.0456 30.5032 8.14349 30.5079C5.79794 30.5137 3.45239 30.5176 1.10683 30.5235C0.134112 30.5259 0.0286216 30.4423 0.0229817 29.4918C0.00934056 27.1929 -0.0217781 24.8932 0.024317 22.5952C0.0430413 21.6617 0.178325 20.7181 0.3746 19.803C0.909661 17.3083 2.89763 15.544 5.4258 15.1351C8.13439 14.697 10.8538 14.8586 13.5723 14.8852C14.7587 14.8969 14.7665 14.8866 14.7632 13.7283C14.752 9.78676 14.7434 5.84515 14.7453 1.90357C14.746 0.308746 14.7595 0.297184 16.3292 0.308669C17.391 0.316438 18.4555 0.323468 19.5134 0.401839C20.6712 0.487615 21.2938 1.04053 21.3766 2.15756C21.4848 3.61786 21.5281 5.08929 21.4701 6.55093C21.4544 6.94523 21.0219 7.37125 20.6934 7.69656C19.7091 8.6714 18.622 9.55001 17.6864 10.5664C16.5827 11.7655 16.5888 13.2724 17.5386 14.598C18.075 15.3468 18.8283 15.7065 19.7246 15.8043C20.0314 15.8378 20.3441 15.8164 20.6537 15.8296C21.4219 15.8624 21.6421 16.068 21.6628 16.8225C21.7049 18.3541 21.7407 19.8859 21.7604 21.4178C21.7694 22.1171 21.5597 22.7187 21.0295 23.2462C19.9688 24.3016 18.9472 25.3976 17.9463 26.5092C16.9039 27.6668 16.804 28.7396 17.5618 29.8457C18.0289 30.5274 18.673 30.9026 19.5083 30.9178C20.2967 30.9321 21.0855 30.9209 22.0689 30.9209C22.0689 32.6632 21.9466 34.2461 22.1027 35.8016C22.2644 37.4131 21.7834 38.5516 20.4939 39.5595C19.2326 40.5454 18.1514 41.7565 16.9447 42.9265C16.8628 43.0133 16.8426 43.0504 16.8068 43.1185C16.7698 43.1877 16.7634 43.2339 16.7363 43.2775C16.7268 43.2733 16.7381 43.2719 16.782 43.2631C16.8419 43.2228 16.8692 43.1897 16.9292 43.1491C16.9904 43.1086 17.0189 43.0756 17.0473 43.0425Z" fill="#52CFAC"/>
<path d="M23.7691 37.2129C24.9871 36.0947 26.1896 35.0282 27.3372 33.9067C28.0166 33.2428 28.1159 32.3969 27.7476 31.5345C27.368 30.6455 26.7039 30.0844 25.696 29.992C25.2772 29.9536 24.8524 29.8554 24.4407 29.8937C23.7288 29.9597 23.5883 29.6504 23.6154 29.0188C23.6699 27.7506 23.6233 26.4782 23.6748 25.2098C23.7004 24.5801 23.5329 24.2975 22.8569 24.4365C22.6317 24.4828 22.3885 24.4438 22.0451 24.4438C22.2093 24.2634 22.2978 24.1512 22.4013 24.0548C24.1238 22.4498 25.8416 20.8398 27.5745 19.2457C28.7414 18.1722 29.0335 16.6456 28.3037 15.3062C27.8231 14.4244 27.0804 13.9467 26.0743 13.8783C25.5222 13.8407 24.9685 13.8154 24.4152 13.8089C24.0204 13.8042 23.8671 13.6427 23.8815 13.248C23.9102 12.4604 23.8757 11.6699 23.9234 10.884C23.9559 10.3477 23.7027 10.1777 23.2273 10.1768C22.8312 10.176 22.4351 10.1766 22.039 10.1766C21.9993 10.1188 21.9596 10.061 21.9199 10.0031C24.7559 7.59094 27.5919 5.17876 30.5277 2.68164C30.5486 2.97841 30.5718 3.15731 30.5723 3.33627C30.5825 6.9275 30.5904 10.5187 30.598 14.11C30.5998 14.9469 30.5986 14.9451 31.4788 14.9452C35.82 14.9454 40.1612 14.9466 44.5024 14.9474C44.7431 14.9475 44.9837 14.9474 45.2246 14.9474C45.2665 15.0466 45.3113 15.1028 45.3106 15.1585C45.2795 17.7846 45.3236 20.4146 45.1905 23.0358C45.0085 26.6196 42.3443 29.6106 38.7412 30.087C36.3419 30.4042 33.8901 30.34 31.4609 30.4251C30.5678 30.4564 30.5739 30.4283 30.575 31.3269C30.5783 33.9107 30.5982 36.4949 30.5649 39.0784C30.5491 40.3086 30.3761 41.526 29.6384 42.5797C28.4851 44.2269 26.8256 44.934 24.8645 44.9722C23.0624 45.0074 23.3077 45.2017 23.2769 43.4798C23.2475 41.8381 23.2223 40.1953 23.1352 38.5561C23.1043 37.975 23.2068 37.5369 23.7691 37.2129Z" fill="#110C2C"/>
<path d="M70.0846 13.3071C70.0282 11.7543 69.9871 10.2663 69.9135 8.77987C69.8872 8.24767 70.0574 8.03654 70.6249 8.04667C72.2606 8.07589 73.8976 8.07547 75.5334 8.04706C76.1208 8.03686 76.3105 8.2479 76.29 8.81625C76.185 11.7258 76.0291 14.6365 76.0383 17.5463C76.0494 21.0693 76.2113 24.5917 76.3005 28.1145C76.324 29.0413 76.3119 29.0653 75.3512 29.0801C73.8022 29.1041 72.2525 29.1054 70.7033 29.0923C69.8395 29.085 69.7745 29.016 69.7977 28.1907C69.8573 26.0683 69.9416 23.9465 70.0022 21.8242C70.0287 20.896 69.9327 20.7859 69.0084 20.7789C66.9279 20.7631 64.8471 20.7633 62.7666 20.779C61.8342 20.7861 61.7646 20.8726 61.7844 21.8263C61.8283 23.9494 61.89 26.0722 61.9338 28.1954C61.9497 28.9651 61.8445 29.0827 61.0671 29.0899C59.4736 29.1046 57.8798 29.0862 56.2862 29.0944C55.666 29.0976 55.4314 28.8357 55.4536 28.2102C55.5756 24.7759 55.7433 21.3406 55.7489 17.9054C55.7538 14.8862 55.5771 11.8662 55.4536 8.84768C55.4295 8.25934 55.5813 8.02877 56.2213 8.04364C57.9233 8.08319 59.627 8.07298 61.3295 8.04707C61.8289 8.03946 61.9876 8.19452 61.9596 8.68607C61.8441 10.718 61.7496 12.7513 61.6657 14.7848C61.6299 15.6542 61.7085 15.7619 62.5698 15.7708C64.7839 15.7938 66.9985 15.7919 69.2125 15.7645C70.0234 15.7545 70.1496 15.5722 70.1341 14.7511C70.1254 14.2914 70.1031 13.8321 70.0846 13.3071Z" fill="#110C2C"/>
<path d="M182.272 29.1896C181.676 29.1612 181.146 29.1344 180.615 29.1035C180.009 29.0682 179.732 28.8073 179.735 28.1487C179.759 24.0543 179.792 19.9589 179.724 15.8655C179.685 13.5285 179.477 11.1934 179.304 8.86031C179.269 8.38899 179.413 8.21731 179.851 8.17838C181.547 8.02739 183.244 7.87766 184.939 7.70774C185.425 7.65898 185.437 7.93614 185.421 8.27236C185.366 9.43133 185.297 10.5899 185.262 11.7495C185.223 13.0843 185.212 14.4201 185.195 15.7555C185.193 15.9197 185.229 16.0845 185.259 16.3587C185.699 16.0715 186.061 15.8387 186.419 15.601C188.219 14.4076 190.136 13.9082 192.267 14.608C194.031 15.1874 195.024 16.5135 195.024 18.3434C195.024 21.6278 194.998 24.9124 195.017 28.1967C195.02 28.8663 194.79 29.1686 194.107 29.1538C192.825 29.1259 191.541 29.1144 190.258 29.1047C189.603 29.0997 189.384 28.7749 189.396 28.1476C189.44 25.7177 189.458 23.2871 189.47 20.8567C189.478 19.3135 188.417 18.5912 186.927 19.1036C186.678 19.1891 186.422 19.2607 186.186 19.3737C185.588 19.6605 185.227 20.077 185.242 20.8033C185.292 23.2548 185.304 25.7072 185.323 28.1592C185.33 29.0276 185.285 29.0853 184.395 29.1416C183.711 29.1849 183.023 29.1754 182.272 29.1896Z" fill="#110C2C"/>
<path d="M101.085 28.2508C97.1395 25.3878 97.2325 19.7385 99.5313 16.8139C101.222 14.6625 104.663 13.5821 107.247 14.5259C108.029 14.8117 108.709 15.3726 109.472 15.8299C109.538 15.6191 109.628 15.3104 109.732 15.0066C109.847 14.6714 110.023 14.4156 110.451 14.5015C111.727 14.758 113.004 15.0159 114.283 15.2597C114.677 15.335 114.785 15.5482 114.71 15.9138C114.017 19.2755 114.157 22.6604 114.414 26.0503C114.47 26.7914 114.445 27.5382 114.475 28.2817C114.496 28.7944 114.285 29.0628 113.749 29.0762C112.466 29.1084 111.181 29.1317 109.899 29.199C109.399 29.2252 109.228 28.9859 109.161 28.5702C109.103 28.2153 109.04 27.8611 108.953 27.345C106.508 29.8255 103.907 29.976 101.085 28.2508ZM103.336 22.4972C103.413 22.6775 103.478 22.8649 103.571 23.0372C104.23 24.2566 105.633 24.8326 107.076 24.4818C108.327 24.1776 109.151 23.1004 109.184 21.7266C109.219 20.2639 108.533 19.2622 107.144 18.9135C105.381 18.4711 103.359 19.183 103.228 21.4205C103.21 21.7428 103.281 22.0701 103.336 22.4972Z" fill="#110C2C"/>
<path d="M133.562 17.1743C133.561 15.6953 133.561 14.2771 133.561 12.8472C131.698 12.9537 130.011 13.0502 128.288 13.1487C128.288 12.8939 128.272 12.7636 128.291 12.6387C128.492 11.3237 128.711 10.0113 128.897 8.6943C128.972 8.1701 129.153 7.96832 129.751 8.02761C134.149 8.46391 138.548 8.36463 142.944 7.96036C143.423 7.91632 143.905 7.91233 144.482 7.88525C144.482 8.2105 144.476 8.46556 144.483 8.72028C144.515 9.89715 144.52 11.0759 144.598 12.2499C144.636 12.8084 144.478 12.9707 143.912 12.9552C142.5 12.9166 141.087 12.9425 139.518 12.9425C139.518 14.7354 139.487 16.6762 139.525 18.6156C139.589 21.8102 139.681 25.0045 139.803 28.1974C139.828 28.8674 139.598 29.0971 138.952 29.0928C137.382 29.0824 135.812 29.1291 134.242 29.1022C133.268 29.0855 133.215 28.9946 133.243 27.9975C133.346 24.4099 133.456 20.8226 133.562 17.1743Z" fill="#110C2C"/>
<path d="M198.743 20.4067C199.242 17.5081 200.717 15.3708 203.506 14.3807C206.217 13.418 208.836 13.6771 211.098 15.6124C212.66 16.949 213.502 18.6648 213.569 20.7237C213.614 22.0791 213.237 22.5506 211.874 22.688C209.585 22.9189 207.29 23.0976 204.997 23.2989C204.649 23.3295 204.302 23.3638 203.948 23.3969C204.18 24.4288 205.136 25.1112 206.493 25.2711C207.887 25.4355 209.171 25.1305 210.362 24.4085C210.625 24.2489 210.891 24.0942 211.213 23.9034C212.07 24.8146 212.644 25.882 213.014 27.0492C213.069 27.2218 212.806 27.5553 212.613 27.7317C211.461 28.7847 210.043 29.2315 208.518 29.3972C206.436 29.6234 204.399 29.4886 202.519 28.4751C199.629 26.9172 198.477 24.2426 198.677 21.052C198.689 20.8556 198.717 20.6601 198.743 20.4067ZM204.212 18.5172C204.021 18.9717 203.789 19.4144 203.653 19.8844C203.535 20.2975 203.728 20.5689 204.212 20.525C205.355 20.4214 206.498 20.3109 207.641 20.2098C208.138 20.1659 208.202 19.8976 208.075 19.4838C207.479 17.5471 205.188 17.2274 204.212 18.5172Z" fill="#110C2C"/>
<path d="M84.8863 14.4076C87.7233 13.4927 90.3583 13.6527 92.6487 15.6422C94.2553 17.0377 95.1055 18.8187 95.0786 20.9645C95.0638 22.1476 94.7197 22.5544 93.5464 22.6674C91.1681 22.8966 88.7866 23.093 86.4065 23.304C86.1013 23.331 85.7967 23.3642 85.4509 23.3987C85.5781 24.1644 86.0607 24.5877 86.6739 24.8648C88.3785 25.6351 90.033 25.3909 91.638 24.5503C92.0052 24.358 92.3541 24.1315 92.7432 23.9019C93.5633 24.798 94.1147 25.8131 94.4953 26.9087C94.5652 27.1098 94.3675 27.4929 94.1783 27.6758C93.0169 28.7985 91.5462 29.2435 89.9778 29.4061C87.6599 29.6463 85.4103 29.4404 83.4198 28.1078C80.7714 26.3348 79.9144 23.7444 80.2333 20.7334C80.5447 17.7944 82.033 15.6231 84.8863 14.4076ZM88.6968 18.1948C87.0993 17.2039 85.3967 17.9841 85.1551 19.8064C85.0886 20.308 85.2366 20.5733 85.7827 20.5255C86.706 20.4446 87.6301 20.3708 88.5525 20.2802C89.7825 20.1594 89.9465 19.8119 89.2539 18.7904C89.1209 18.5942 88.9347 18.4332 88.6968 18.1948Z" fill="#110C2C"/>
<path d="M156.797 25.2504C157.851 24.8482 158.847 24.453 159.953 24.0145C160.682 24.814 161.244 25.8646 161.631 27.0022C161.687 27.1683 161.482 27.4883 161.313 27.6515C160.152 28.7744 158.69 29.2309 157.12 29.3993C154.777 29.6504 152.503 29.4508 150.502 28.09C147.669 26.1636 146.897 23.3725 147.422 20.1884C148.359 14.5003 154.052 12.7958 157.982 14.492C160.525 15.5896 162.236 18.2458 162.192 20.9564C162.174 22.112 161.803 22.5564 160.661 22.6661C158.282 22.8946 155.901 23.0921 153.521 23.3032C153.214 23.3304 152.908 23.3629 152.556 23.3975C152.674 24.1544 153.163 24.5574 153.76 24.8599C154.702 25.3374 155.71 25.3799 156.797 25.2504ZM152.925 18.4081C152.697 18.8966 152.42 19.3697 152.257 19.8785C152.127 20.2846 152.343 20.5653 152.82 20.524C153.964 20.425 155.107 20.3114 156.251 20.2136C156.74 20.1717 156.821 19.8982 156.715 19.4911C156.279 17.8255 154.327 17.2206 152.925 18.4081Z" fill="#110C2C"/>
<path d="M166.394 23.4902C166.418 22.4003 166.443 21.372 166.456 20.3434C166.466 19.5525 166.307 19.4012 165.495 19.3749C165.257 19.3671 165.018 19.3488 164.703 19.331C164.703 18.1427 164.677 16.9887 164.733 15.8384C164.741 15.6795 165.136 15.4437 165.377 15.4077C166.296 15.2705 166.318 15.2957 166.327 14.3687C166.338 13.1435 166.297 11.9177 166.317 10.6928C166.334 9.64865 166.425 9.60345 167.425 9.75659C168.691 9.95049 169.958 10.1403 171.229 10.2943C171.73 10.355 171.909 10.5431 171.86 11.0525C171.76 12.0755 171.696 13.1031 171.66 14.1303C171.633 14.8839 171.791 15.0142 172.544 14.9912C173.406 14.9648 174.27 14.9456 175.131 14.8875C175.658 14.8519 175.76 15.0777 175.732 15.5477C175.666 16.6601 175.626 17.7752 175.623 18.8893C175.622 19.3476 175.475 19.5172 175.014 19.5038C174.107 19.4775 173.197 19.5116 172.291 19.4701C171.837 19.4493 171.688 19.6474 171.696 20.035C171.718 21.1067 171.705 22.1819 171.793 23.2488C171.879 24.2971 172.579 24.777 173.768 24.6619C174.315 24.6089 174.855 24.4732 175.397 24.3685C175.859 24.2791 176.121 24.3827 176.067 24.9268C175.981 25.7971 175.96 26.6745 175.845 27.5403C175.814 27.7724 175.591 28.0591 175.375 28.1751C173.23 29.33 170.955 29.6556 168.581 29.0534C167.171 28.6956 166.347 27.6209 166.324 26.1763C166.31 25.302 166.365 24.4266 166.394 23.4902Z" fill="#110C2C"/>
<path d="M124.868 13.7395C124.858 18.572 124.848 23.3421 124.846 28.1123C124.845 29.0451 124.861 29.0797 123.915 29.1069C122.656 29.1433 121.394 29.1464 120.135 29.1121C119.238 29.0877 119.196 29.0102 119.2 28.1442C119.218 23.2193 119.271 18.2943 119.243 13.3696C119.234 11.8434 119.038 10.3154 118.871 8.79427C118.807 8.20807 118.951 8.01699 119.558 8.02915C121.195 8.06201 122.835 8.06042 124.472 8.02881C125 8.01862 125.171 8.16532 125.136 8.69445C125.025 10.3539 124.956 12.0161 124.868 13.7395Z" fill="#110C2C"/>
<path d="M222.816 26.3038C222.858 27.067 222.891 27.7672 222.944 28.4658C222.976 28.8837 222.796 29.0859 222.379 29.0853C220.895 29.083 219.412 29.0803 217.928 29.0747C217.35 29.0725 217.26 28.7071 217.266 28.2335C217.292 26.1308 217.312 24.028 217.319 21.9251C217.326 19.8417 217.219 17.7664 216.672 15.7408C216.555 15.3111 216.684 15.1376 217.109 15.0723C218.574 14.8474 220.037 14.6161 221.497 14.3641C221.953 14.2852 222.155 14.4457 222.205 14.8819C222.252 15.291 222.327 15.697 222.397 16.15C223.137 15.7681 223.788 15.3331 224.506 15.0891C225.245 14.8375 226.046 14.7395 226.828 14.6372C227.293 14.5764 227.543 14.793 227.511 15.3366C227.427 16.7337 227.383 18.1339 227.36 19.5334C227.35 20.0899 227.075 20.268 226.575 20.2604C225.824 20.249 225.068 20.1807 224.323 20.2441C223.189 20.3408 222.82 20.7589 222.804 21.9032C222.782 23.3485 222.809 24.7945 222.816 26.3038Z" fill="#110C2C"/>
<path d="M154.069 40.2511C154.069 40.9074 154.069 41.498 154.069 42.0886C154.068 44.5166 152.608 45.6032 150.203 44.9818C149.773 44.8708 149.594 44.6715 149.77 44.1876C150.82 44.2655 152.005 44.731 152.826 43.7197C153.137 43.3373 153.127 42.7004 153.259 42.1956C152.55 42.3338 151.995 42.5619 151.459 42.5232C150.084 42.424 149.226 41.2523 149.359 39.7637C149.395 39.3552 149.479 38.9386 149.62 38.5536C150.093 37.2594 151.728 36.4498 153.1 37.5912C153.39 37.4276 153.647 37.2827 154.069 37.0444C154.069 38.2347 154.069 39.21 154.069 40.2511ZM153.168 39.0434C153.259 38.4994 152.973 38.1812 152.511 37.9653C151.965 37.71 151.439 37.7271 150.955 38.0992C150.064 38.7838 150.004 40.7501 150.855 41.4777C151.387 41.9319 151.982 41.8911 152.598 41.654C153.17 41.4341 153.205 40.9861 153.173 40.4768C153.146 40.0414 153.168 39.6031 153.168 39.0434Z" fill="#52CFAC"/>
<path d="M114.728 39.068C114.728 37.7353 114.728 36.4682 114.728 35.1515C115.027 35.1515 115.28 35.1515 115.618 35.1515C115.618 36.1508 115.618 37.165 115.618 38.2227C116.933 38.2227 118.164 38.2227 119.479 38.2227C119.479 37.2241 119.479 36.2088 119.479 35.1484C119.816 35.1484 120.069 35.1484 120.431 35.1484C120.431 35.3533 120.431 35.5612 120.431 35.7691C120.431 37.7619 120.407 39.7552 120.444 41.7474C120.457 42.4203 120.189 42.5525 119.533 42.3703C119.533 41.315 119.533 40.2339 119.533 39.112C118.224 39.112 116.993 39.112 115.674 39.112C115.674 40.1773 115.674 41.2562 115.674 42.3947C115.335 42.4115 115.081 42.424 114.728 42.4415C114.728 41.305 114.728 40.2194 114.728 39.068Z" fill="#52CFAC"/>
<path d="M161.242 35.103C161.697 35.1619 162.104 35.1721 162.477 35.2872C163.396 35.5705 163.883 36.2229 163.912 37.115C163.94 37.9967 163.503 38.7492 162.634 39.0633C162.043 39.2766 161.396 39.3456 160.769 39.4462C160.492 39.4907 160.201 39.4537 159.842 39.4537C159.842 40.4457 159.842 41.3964 159.842 42.3276C158.976 42.5389 158.903 42.491 158.902 41.7495C158.9 39.7612 158.9 37.7728 158.902 35.7845C158.902 35.5914 158.92 35.3982 158.934 35.1021C159.698 35.1021 160.438 35.1021 161.242 35.103ZM161.647 35.9263C161.06 35.9263 160.474 35.9263 159.822 35.9263C159.822 36.3554 159.822 36.7205 159.822 37.0857C159.822 38.7749 159.822 38.7749 161.517 38.5488C162.391 38.4322 162.886 37.9909 162.951 37.2696C163.01 36.6173 162.652 36.2167 161.647 35.9263Z" fill="#52CFAC"/>
<path d="M26.9169 32.9461C26.1742 34.4852 24.86 35.4285 23.5728 36.5434C23.5728 34.6637 23.5728 32.8904 23.5728 31.0454C24.3772 31.0454 25.1313 30.9562 25.8534 31.0681C26.7452 31.2064 27.1251 31.9498 26.9169 32.9461Z" fill="#110C2C"/>
<path d="M20.0318 26.1445C20.5785 25.6761 21.0916 25.2404 21.6047 24.8047C21.6671 24.829 21.7295 24.8534 21.7919 24.8777C21.7919 26.508 21.7919 28.1383 21.7919 29.9004C21.0372 29.8665 20.1917 29.9299 19.3929 29.7679C18.2833 29.5429 17.9474 28.493 18.6472 27.6167C19.0562 27.1046 19.5453 26.655 20.0318 26.1445Z" fill="#52CFAC"/>
<path d="M132.697 37.4482C133.281 37.8843 133.453 38.4471 133.448 39.0928C133.441 39.9675 133.465 40.8429 133.434 41.7166C133.426 41.9572 133.271 42.1929 133.184 42.4308C132.945 42.3254 132.706 42.2199 132.384 42.0775C131.329 42.7008 130.38 42.7373 129.701 42.1123C129.201 41.6515 129.006 40.7784 129.358 40.1772C130.112 38.8864 131.312 39.1692 132.478 39.385C132.704 37.9885 132.165 37.7135 129.727 37.9895C129.539 37.5563 129.642 37.2992 130.146 37.2009C131.008 37.0326 131.853 36.9596 132.697 37.4482ZM132.363 40.0926C131.905 40.0535 131.446 39.9708 130.991 39.9865C130.421 40.0059 130.106 40.3264 130.131 40.921C130.155 41.4934 130.512 41.8231 131.118 41.825C132.177 41.8284 132.68 41.2021 132.363 40.0926Z" fill="#52CFAC"/>
<path d="M169.131 41.9874C168.513 42.4111 167.906 42.6696 167.171 42.5137C166.339 42.3372 165.852 41.801 165.804 40.9759C165.76 40.2288 166.197 39.5115 166.968 39.3507C167.638 39.211 168.35 39.2652 169.065 39.2328C169.342 37.9903 168.537 37.591 166.383 38.0035C166.172 37.5367 166.312 37.2282 166.83 37.1946C167.461 37.1537 168.114 37.095 168.726 37.209C169.588 37.3697 170.026 37.9957 170.034 38.8621C170.046 40.0187 170.037 41.1755 170.037 42.3474C169.59 42.5325 169.291 42.4748 169.131 41.9874ZM169.143 40.4657C169.016 40.3197 168.907 40.0696 168.761 40.0472C168.332 39.981 167.861 39.9103 167.461 40.0256C167.171 40.109 166.793 40.4717 166.771 40.7358C166.745 41.0464 166.976 41.5162 167.244 41.6865C168.018 42.1764 169.128 41.4937 169.143 40.4657Z" fill="#52CFAC"/>
<path d="M123.135 41.5195C122.604 40.6031 122.609 39.6796 122.886 38.7495C123.228 37.5989 124.184 36.9892 125.418 37.0929C126.382 37.174 127.046 37.8984 127.2 39.0686C127.237 39.3437 127.206 39.6276 127.206 39.9757C126.015 39.9757 124.853 39.9757 123.702 39.9757C123.482 41.4833 124.665 42.0671 126.906 41.6085C127.093 42.0571 127.007 42.3537 126.475 42.4429C125.233 42.651 124.041 42.6849 123.135 41.5195ZM125.437 37.8692C124.426 37.7072 123.771 38.2059 123.717 39.1905C124.565 39.1905 125.411 39.1905 126.286 39.1905C126.285 38.5782 126.079 38.1405 125.437 37.8692Z" fill="#52CFAC"/>
<path d="M192.854 38.6269C192.919 39.0822 192.966 39.4875 193.023 39.9712C191.752 39.9712 190.566 39.9712 189.383 39.9712C189.351 41.5474 190.282 41.9938 192.698 41.625C192.893 42.1158 192.684 42.4205 192.197 42.4395C191.478 42.4675 190.728 42.5158 190.046 42.3435C189.588 42.228 189.124 41.8152 188.841 41.4132C188.206 40.5135 188.383 38.7192 189.097 37.8803C189.678 37.1976 190.442 36.9651 191.308 37.112C192.135 37.2524 192.618 37.791 192.854 38.6269ZM191.878 38.4659C191.423 37.8279 191 37.6561 190.37 37.8928C189.788 38.1116 189.464 38.5247 189.428 39.1788C190.339 39.1788 191.183 39.1788 192.075 39.1788C192.016 38.9292 191.971 38.7417 191.878 38.4659Z" fill="#52CFAC"/>
<path d="M98.7827 40.0862C98.6784 41.1458 98.2677 41.9552 97.2829 42.3592C96.3777 42.7305 95.5043 42.6137 94.7205 42.0361C93.7954 41.3546 93.4955 39.7298 94.0374 38.4896C94.5032 37.4235 95.5568 36.9017 96.8225 37.1101C97.8662 37.282 98.649 38.161 98.7671 39.3079C98.7917 39.5458 98.78 39.7874 98.7827 40.0862ZM97.8455 40.3705C97.8433 39.9779 97.8813 39.5802 97.8304 39.194C97.7281 38.4184 97.1277 37.8575 96.3886 37.7846C95.7754 37.7241 95.1514 38.1152 94.8927 38.7633C94.5772 39.5536 94.5864 40.346 95.0143 41.0976C95.4415 41.8478 96.4835 42.0971 97.1218 41.5494C97.4351 41.2806 97.6002 40.843 97.8455 40.3705Z" fill="#52CFAC"/>
<path d="M87.6618 36.5184C87.3878 36.0705 87.1405 35.6626 86.8667 35.2109C87.4541 34.9956 87.8169 35.0822 88.1096 35.6035C88.6665 36.5951 89.2785 37.5564 89.9349 38.6416C90.5609 37.613 91.1667 36.6871 91.6964 35.7205C91.9986 35.1691 92.3619 34.9532 93.0343 35.1845C92.4413 36.1455 91.8993 37.1211 91.2612 38.0308C90.6051 38.9662 90.238 39.9379 90.3909 41.0885C90.4451 41.4963 90.3996 41.917 90.3996 42.3215C89.5581 42.5596 89.4124 42.4983 89.4896 41.7174C89.6429 40.1681 89.3127 38.786 88.316 37.5625C88.0684 37.2585 87.8958 36.8947 87.6618 36.5184Z" fill="#52CFAC"/>
<path d="M104.367 40.7028C104.371 39.5326 104.371 38.4209 104.371 37.2617C104.689 37.2617 104.941 37.2617 105.232 37.2617C105.232 38.5022 105.318 39.7481 105.206 40.9765C105.111 42.028 104.117 42.6461 102.964 42.5681C101.771 42.4872 100.987 41.8208 100.934 40.7217C100.879 39.5897 100.922 38.453 100.922 37.2663C101.21 37.2663 101.462 37.2663 101.819 37.2663C101.819 38.3412 101.817 39.4262 101.819 40.5112C101.82 41.0856 102.022 41.5317 102.617 41.7339C103.456 42.0192 104.099 41.6645 104.367 40.7028Z" fill="#52CFAC"/>
<path d="M142.838 37.4365C143.354 36.9747 143.577 37.2389 143.641 37.6459C144.305 37.4524 144.924 37.1637 145.564 37.1114C146.446 37.0392 147.082 37.5852 147.131 38.4569C147.205 39.737 147.15 41.0241 147.15 42.3484C146.88 42.3484 146.652 42.3484 146.337 42.3484C146.337 41.7566 146.342 41.1952 146.335 40.6338C146.328 40.0446 146.346 39.4519 146.287 38.8673C146.209 38.0942 145.856 37.7713 145.224 37.7928C144.498 37.8175 143.723 38.4709 143.716 39.0875C143.706 40.155 143.714 41.2227 143.714 42.3402C143.416 42.3402 143.167 42.3402 142.831 42.3402C142.831 40.7152 142.831 39.1045 142.838 37.4365Z" fill="#52CFAC"/>
<path d="M185.814 37.5315C185.977 37.8435 186.209 38.116 186.217 38.3952C186.257 39.702 186.235 41.0106 186.235 42.3535C185.975 42.3535 185.762 42.3535 185.428 42.3535C185.428 41.9487 185.437 41.5441 185.426 41.1401C185.403 40.2886 185.413 39.433 185.325 38.5876C185.266 38.0156 184.797 37.736 184.229 37.8007C183.385 37.8969 182.804 38.5379 182.803 39.3752C182.803 40.3557 182.803 41.3361 182.803 42.3484C182.502 42.3484 182.273 42.3484 182.006 42.3484C182.006 40.6514 182.006 38.9947 182.006 37.3143C182.53 36.9798 182.654 37.4044 182.8 37.8209C183.749 37.0417 184.717 36.7424 185.814 37.5315Z" fill="#52CFAC"/>
<path d="M23.7913 18.9508C23.8361 18.0352 23.8979 17.1845 23.9162 16.3329C23.9248 15.929 24.0994 15.7793 24.4799 15.8063C24.9849 15.842 25.5025 15.8226 25.9919 15.9293C26.7935 16.1041 27.0909 16.7848 26.5812 17.4061C25.7707 18.3941 24.8587 19.3008 23.9897 20.2419C23.9233 20.2134 23.8569 20.1848 23.7905 20.1563C23.7905 19.776 23.7905 19.3956 23.7913 18.9508Z" fill="#110C2C"/>
<path d="M24.2494 1.57795C24.6837 0.791544 25.3418 0.449801 26.1696 0.422165C26.8488 0.399488 27.5294 0.417542 28.3282 0.565775C26.9471 1.84801 25.5659 3.13025 24.1847 4.41248C24.1064 4.38849 24.028 4.36451 23.9497 4.34052C24.0413 3.43478 24.1329 2.52904 24.2494 1.57795Z" fill="#110C2C"/>
<path d="M178.5 42.4834C177.729 42.2514 177.437 41.7517 177.453 41.0289C177.468 40.3504 177.456 39.6712 177.456 38.9923C177.456 37.9973 177.456 37.9973 176.462 37.8468C176.462 37.6677 176.462 37.4826 176.462 37.2559C176.774 37.2301 177.073 37.2054 177.423 37.1764C177.444 36.7281 177.463 36.2998 177.484 35.8276C177.737 35.8276 177.967 35.8276 178.266 35.8276C178.266 36.2538 178.266 36.6811 178.266 37.1754C178.806 37.1754 179.282 37.1754 179.834 37.1754C179.847 37.4377 179.856 37.6369 179.87 37.9185C179.335 37.9185 178.86 37.9185 178.317 37.9185C178.317 39.0379 178.286 40.0811 178.33 41.1214C178.351 41.622 178.766 41.7982 179.229 41.8084C179.446 41.8132 179.664 41.7654 179.903 41.7392C180.11 42.2859 179.919 42.5295 179.352 42.5149C179.087 42.5081 178.822 42.499 178.5 42.4834Z" fill="#52CFAC"/>
<path d="M136.799 41.4251C136.799 41.7916 136.799 42.0938 136.799 42.4402C136.481 42.4402 136.21 42.4402 135.904 42.4402C135.904 39.7912 135.904 37.1614 135.904 34.5C136.195 34.5 136.451 34.5 136.799 34.5C136.799 36.7917 136.799 39.0763 136.799 41.4251Z" fill="#52CFAC"/>
<path d="M108.58 37.843C109.17 37.3847 109.725 36.9554 110.56 37.1294C110.56 37.3592 110.56 37.5873 110.56 37.8133C108.588 38.3363 108.588 38.3363 108.588 40.3524C108.588 40.8118 108.555 41.2741 108.596 41.7297C108.655 42.3737 108.391 42.5689 107.738 42.3809C107.738 40.7036 107.738 39.0105 107.738 37.3152C108.347 37.1669 108.347 37.1669 108.58 37.843Z" fill="#52CFAC"/>
<path d="M174.784 37.9612C173.592 38.2565 173.374 38.5308 173.374 39.6862C173.374 40.5765 173.374 41.4669 173.374 42.3973C173.077 42.3973 172.848 42.3973 172.579 42.3973C172.579 40.671 172.579 38.9794 172.579 37.2535C172.773 37.2408 172.941 37.2298 173.146 37.2165C173.221 37.4298 173.292 37.6284 173.338 37.7572C173.985 37.4852 174.621 37.2177 175.388 36.8955C175.388 37.3478 175.388 37.5722 175.388 37.8379C175.213 37.8723 175.024 37.9093 174.784 37.9612Z" fill="#52CFAC"/>
<path d="M195.758 37.2248C195.924 37.4528 196.035 37.6745 196.153 37.9103C196.681 37.3795 197.265 36.9803 198.123 37.1229C198.123 37.3522 198.123 37.5779 198.123 37.8424C198.002 37.8638 197.878 37.8854 197.753 37.9078C196.37 38.1566 196.106 38.4664 196.106 39.8447C196.106 40.6684 196.106 41.4921 196.106 42.3487C195.803 42.3487 195.575 42.3487 195.275 42.3487C195.275 40.7219 195.267 39.1344 195.294 37.5475C195.296 37.4356 195.561 37.3281 195.758 37.2248Z" fill="#52CFAC"/>
<path d="M21.46 13.4963C20.9026 13.5859 20.3779 13.7191 19.8718 13.6688C19.2066 13.6027 18.8887 12.8349 19.3358 12.3352C19.9392 11.6608 20.651 11.0812 21.3163 10.4609C21.3778 10.4924 21.4393 10.5239 21.5009 10.5554C21.5009 11.523 21.5009 12.4906 21.46 13.4963Z" fill="#52CFAC"/>
<path d="M140.279 37.524C140.278 39.1107 140.274 40.6352 140.268 42.1598C140.268 42.2003 140.243 42.2406 140.207 42.3525C140.005 42.3631 139.776 42.3752 139.497 42.39C139.497 40.6594 139.497 38.9747 139.497 37.1143C139.807 37.2526 140.042 37.3572 140.279 37.524Z" fill="#52CFAC"/>
<path d="M140.192 35.9536C139.856 35.9838 139.468 36.2143 139.381 35.6848C139.284 35.0908 139.46 34.9618 140.233 35.1021C140.233 35.3686 140.233 35.6421 140.192 35.9536Z" fill="#52CFAC"/>
<path d="M17.0237 43.0177C17.0193 43.0755 16.9909 43.1086 16.9149 43.1338C16.8674 43.126 16.8379 43.0955 16.8379 43.0955C16.843 43.0503 16.8633 43.0133 16.924 42.9649C16.9661 42.9613 16.9829 42.9771 17.0237 43.0177Z" fill="#52CFAC"/>
<path d="M16.7566 43.2804C16.7629 43.2341 16.7693 43.1878 16.8063 43.1186C16.8369 43.0957 16.8664 43.1261 16.8811 43.1415C16.8686 43.1899 16.8414 43.2229 16.7832 43.2659C16.7522 43.2759 16.7566 43.2804 16.7566 43.2804Z" fill="#52CFAC"/>
<path d="M16.7512 43.2729C16.7382 43.2717 16.7269 43.2731 16.7364 43.2773C16.7572 43.28 16.7529 43.2755 16.7512 43.2729Z" fill="#52CFAC"/>
</svg>
