<svg width="208" height="41" viewBox="0 0 208 41" fill="none" xmlns="http://www.w3.org/2000/svg">
<path d="M15.5852 39.07C16.5558 38.2253 17.5287 37.3831 18.4959 36.5346C19.0252 36.0704 19.5447 35.5953 20.1618 35.0416C20.1979 35.6938 20.248 36.2534 20.2558 36.8135C20.2719 37.9745 20.2558 39.1359 20.274 40.2967C20.28 40.6776 20.1504 40.8409 19.7511 40.8382C17.9491 40.8257 16.1468 40.8455 14.3451 40.8213C13.5289 40.8104 13.4928 40.7388 13.4911 39.9491C13.4825 36.1253 13.4745 32.3016 13.4652 28.4779C13.4632 27.6599 13.4619 27.6155 12.6617 27.6042C10.9232 27.5798 9.18396 27.6061 7.44503 27.6105C5.30066 27.6158 3.15628 27.6193 1.0119 27.6247C0.12261 27.6269 0.0261668 27.5505 0.0210106 26.6816C0.00853943 24.5798 -0.0199102 22.4773 0.0222314 20.3764C0.0393497 19.523 0.16303 18.6603 0.342471 17.8237C0.83164 15.543 2.6491 13.93 4.96043 13.5562C7.43672 13.1557 9.92287 13.3034 12.4083 13.3277C13.4929 13.3384 13.5 13.329 13.497 12.2701C13.4868 8.66657 13.4789 5.06303 13.4806 1.45951C13.4813 0.00147875 13.4936 -0.00909223 14.9287 0.00140798C15.8994 0.00851046 16.8726 0.0149374 17.8397 0.0865868C18.8983 0.165006 19.4675 0.670497 19.5432 1.69172C19.6421 3.02677 19.6816 4.372 19.6286 5.70827C19.6143 6.06876 19.2188 6.45823 18.9185 6.75565C18.0186 7.64687 17.0248 8.45013 16.1695 9.37935C15.1604 10.4756 15.166 11.8532 16.0343 13.0652C16.5247 13.7497 17.2134 14.0786 18.0328 14.168C18.3134 14.1986 18.5992 14.179 18.8822 14.1911C19.5846 14.2211 19.7859 14.4091 19.8048 15.0989C19.8433 16.4991 19.876 17.8995 19.894 19.3C19.9023 19.9393 19.7105 20.4893 19.2258 20.9716C18.2561 21.9365 17.3221 22.9385 16.407 23.9547C15.454 25.0131 15.3627 25.9938 16.0555 27.005C16.4826 27.6283 17.0714 27.9714 17.8351 27.9852C18.5559 27.9983 19.2771 27.988 20.176 27.988C20.176 29.581 20.0642 31.028 20.2069 32.4501C20.3548 33.9234 19.915 34.9643 18.7361 35.8857C17.583 36.787 16.5945 37.8942 15.4913 38.9639C15.4165 39.0433 15.398 39.0772 15.3653 39.1394C15.3315 39.2027 15.3257 39.245 15.3008 39.2848C15.2922 39.281 15.3025 39.2797 15.3427 39.2717C15.3974 39.2348 15.4223 39.2046 15.4772 39.1675C15.5332 39.1304 15.5592 39.1002 15.5852 39.07Z" fill="#52CFAC"/>
<path d="M21.7306 33.7405C22.8442 32.7181 23.9435 31.7431 24.9927 30.7179C25.6139 30.1109 25.7046 29.3375 25.3679 28.549C25.0208 27.7364 24.4137 27.2233 23.4922 27.1389C23.1094 27.1038 22.721 27.014 22.3446 27.049C21.6938 27.1094 21.5653 26.8265 21.5901 26.2491C21.6399 25.0897 21.5973 23.9265 21.6444 22.7669C21.6678 22.1911 21.5147 21.9328 20.8967 22.0599C20.6908 22.1022 20.4684 22.0665 20.1545 22.0665C20.3046 21.9016 20.3855 21.7991 20.4801 21.7109C22.0549 20.2436 23.6254 18.7716 25.2096 17.3143C26.2765 16.3329 26.5435 14.9371 25.8763 13.7127C25.4369 12.9065 24.7579 12.4697 23.8381 12.4072C23.3333 12.3729 22.8271 12.3497 22.3213 12.3438C21.9603 12.3395 21.8202 12.1918 21.8334 11.831C21.8596 11.111 21.8281 10.3883 21.8717 9.66971C21.9014 9.17942 21.6699 9.024 21.2353 9.02318C20.8732 9.0225 20.511 9.02304 20.1489 9.02304C20.1126 8.97017 20.0763 8.9173 20.04 8.86443C22.6328 6.65913 25.2255 4.45385 27.9096 2.1709C27.9287 2.44222 27.9499 2.60577 27.9503 2.76938C27.9597 6.05259 27.9669 9.33581 27.9738 12.619C27.9755 13.3842 27.9743 13.3826 28.779 13.3826C32.7479 13.3828 36.7167 13.3839 40.6856 13.3847C40.9057 13.3847 41.1257 13.3847 41.3459 13.3847C41.3842 13.4753 41.4251 13.5267 41.4245 13.5776C41.3961 15.9785 41.4364 18.3829 41.3147 20.7793C41.1484 24.0557 38.7126 26.7902 35.4186 27.2257C33.2251 27.5158 30.9835 27.457 28.7627 27.5348C27.9462 27.5634 27.9517 27.5378 27.9528 28.3592C27.9558 30.7215 27.974 33.084 27.9435 35.4459C27.9291 36.5706 27.771 37.6836 27.0965 38.6469C26.0421 40.1529 24.5249 40.7993 22.732 40.8343C21.0845 40.8664 21.3088 41.044 21.2806 39.4698C21.2537 37.9689 21.2307 36.467 21.1511 34.9684C21.1228 34.4371 21.2165 34.0367 21.7306 33.7405Z" fill="#110C2C"/>
<path d="M64.0736 11.8849C64.0221 10.4653 63.9845 9.1049 63.9173 7.74596C63.8932 7.25941 64.0488 7.06639 64.5676 7.07565C66.063 7.10236 67.5596 7.10198 69.0551 7.07601C69.5922 7.06668 69.7656 7.25962 69.7468 7.77923C69.6508 10.4392 69.5083 13.1003 69.5167 15.7605C69.5269 18.9813 69.6748 22.2016 69.7564 25.4222C69.7779 26.2696 69.7669 26.2915 68.8885 26.3051C67.4724 26.327 66.0556 26.3282 64.6393 26.3162C63.8495 26.3095 63.7901 26.2464 63.8113 25.4919C63.8659 23.5515 63.9429 21.6118 63.9983 19.6715C64.0226 18.8229 63.9348 18.7223 63.0897 18.7158C61.1877 18.7014 59.2854 18.7016 57.3833 18.716C56.5309 18.7224 56.4673 18.8015 56.4853 19.6734C56.5255 21.6144 56.5819 23.5552 56.6219 25.4962C56.6364 26.1999 56.5403 26.3075 55.8296 26.314C54.3727 26.3275 52.9157 26.3107 51.4587 26.3182C50.8917 26.3211 50.6772 26.0816 50.6975 25.5098C50.8091 22.37 50.9624 19.2294 50.9675 16.0888C50.972 13.3286 50.8105 10.5676 50.6975 7.80796C50.6755 7.27008 50.8143 7.05928 51.3994 7.07288C52.9554 7.10904 54.513 7.09971 56.0695 7.07601C56.5261 7.06906 56.6711 7.21082 56.6456 7.66021C56.5399 9.5179 56.4535 11.3768 56.3769 13.2359C56.3441 14.0307 56.416 14.1291 57.2034 14.1373C59.2275 14.1584 61.2523 14.1566 63.2763 14.1315C64.0177 14.1224 64.1331 13.9558 64.1189 13.205C64.111 12.7848 64.0906 12.3648 64.0736 11.8849Z" fill="#110C2C"/>
<path d="M166.638 26.4052C166.094 26.3793 165.609 26.3548 165.124 26.3265C164.57 26.2943 164.316 26.0557 164.32 25.4536C164.341 21.7104 164.371 17.9663 164.309 14.2239C164.273 12.0874 164.083 9.95251 163.925 7.81957C163.894 7.38867 164.025 7.23172 164.425 7.19613C165.976 7.05809 167.527 6.9212 169.077 6.76585C169.521 6.72128 169.532 6.97466 169.518 7.28205C169.467 8.34161 169.404 9.4008 169.372 10.4609C169.336 11.6813 169.327 12.9025 169.311 14.1234C169.309 14.2735 169.342 14.4241 169.37 14.6748C169.772 14.4123 170.102 14.1994 170.43 13.9822C172.075 12.8911 173.828 12.4345 175.776 13.0743C177.389 13.604 178.297 14.8164 178.297 16.4893C178.297 19.492 178.274 22.4949 178.29 25.4975C178.294 26.1097 178.083 26.386 177.459 26.3725C176.286 26.347 175.113 26.3365 173.94 26.3276C173.341 26.3231 173.141 26.0261 173.151 25.4526C173.191 23.2311 173.208 21.009 173.219 18.7871C173.226 17.3762 172.257 16.7159 170.894 17.1843C170.667 17.2625 170.433 17.328 170.217 17.4312C169.67 17.6935 169.34 18.0742 169.354 18.7382C169.4 20.9795 169.41 23.2215 169.428 25.4632C169.435 26.2571 169.394 26.3099 168.58 26.3614C167.954 26.401 167.325 26.3922 166.638 26.4052Z" fill="#110C2C"/>
<path d="M92.4144 25.5471C88.8078 22.9297 88.8928 17.7649 90.9944 15.0911C92.5404 13.1243 95.6863 12.1365 98.0481 12.9993C98.7633 13.2606 99.3845 13.7735 100.083 14.1915C100.143 13.9988 100.225 13.7166 100.32 13.4389C100.425 13.1324 100.587 12.8986 100.977 12.9771C102.144 13.2116 103.311 13.4474 104.48 13.6702C104.841 13.7391 104.94 13.934 104.871 14.2682C104.237 17.3416 104.366 20.4362 104.6 23.5353C104.652 24.2129 104.629 24.8957 104.656 25.5754C104.675 26.0441 104.482 26.2895 103.993 26.3017C102.819 26.3312 101.645 26.3525 100.473 26.414C100.016 26.438 99.8598 26.2191 99.7977 25.8391C99.7448 25.5147 99.6879 25.1909 99.6076 24.719C97.3724 26.9868 94.9949 27.1244 92.4144 25.5471ZM94.4726 20.287C94.5436 20.4519 94.6026 20.6231 94.6877 20.7806C95.2898 21.8955 96.573 22.4221 97.8919 22.1014C99.0354 21.8233 99.7889 20.8384 99.819 19.5825C99.851 18.2452 99.224 17.3294 97.954 17.0107C96.3424 16.6063 94.4935 17.2571 94.3744 19.3027C94.3573 19.5973 94.4224 19.8965 94.4726 20.287Z" fill="#110C2C"/>
<path d="M122.107 15.4211C122.106 14.0689 122.106 12.7723 122.106 11.4651C120.402 11.5625 118.86 11.6506 117.285 11.7407C117.285 11.5078 117.27 11.3887 117.288 11.2745C117.471 10.0722 117.672 8.87242 117.842 7.66836C117.91 7.18912 118.076 7.00465 118.623 7.05886C122.643 7.45773 126.665 7.36697 130.684 6.99738C131.122 6.95711 131.563 6.95346 132.09 6.92871C132.09 7.22606 132.085 7.45924 132.091 7.69211C132.121 8.76805 132.125 9.84572 132.197 10.919C132.231 11.4296 132.087 11.578 131.569 11.5638C130.278 11.5285 128.986 11.5522 127.552 11.5522C127.552 13.1913 127.523 14.9657 127.559 16.7387C127.617 19.6593 127.701 22.5797 127.812 25.4987C127.836 26.1113 127.625 26.3213 127.034 26.3173C125.599 26.3078 124.163 26.3505 122.729 26.3259C121.838 26.3107 121.789 26.2275 121.815 25.3159C121.909 22.0361 122.01 18.7564 122.107 15.4211Z" fill="#110C2C"/>
<path d="M181.697 18.3755C182.153 15.7255 183.502 13.7714 186.051 12.8663C188.53 11.9861 190.924 12.2231 192.992 13.9924C194.42 15.2143 195.19 16.783 195.252 18.6653C195.292 19.9044 194.947 20.3355 193.702 20.4611C191.609 20.6722 189.511 20.8355 187.415 21.0196C187.097 21.0475 186.779 21.0789 186.455 21.1092C186.667 22.0526 187.541 22.6764 188.782 22.8227C190.057 22.9729 191.23 22.6941 192.319 22.034C192.559 21.8881 192.803 21.7467 193.097 21.5722C193.881 22.4053 194.406 23.3811 194.744 24.4482C194.794 24.6061 194.554 24.9109 194.377 25.0722C193.324 26.0349 192.028 26.4434 190.633 26.5949C188.73 26.8017 186.868 26.6784 185.149 25.7519C182.507 24.3275 181.454 21.8824 181.636 18.9654C181.648 18.7859 181.673 18.6071 181.697 18.3755ZM186.696 16.648C186.522 17.0635 186.31 17.4682 186.186 17.8979C186.077 18.2756 186.254 18.5238 186.697 18.4836C187.742 18.3889 188.787 18.2878 189.832 18.1954C190.286 18.1553 190.345 17.91 190.228 17.5317C189.684 15.7611 187.589 15.4688 186.696 16.648Z" fill="#110C2C"/>
<path d="M77.6058 12.8914C80.1995 12.0549 82.6085 12.2013 84.7024 14.0201C86.1712 15.296 86.9485 16.9242 86.924 18.886C86.9104 19.9676 86.5958 20.3394 85.5231 20.4428C83.3488 20.6523 81.1716 20.8319 78.9956 21.0247C78.7166 21.0495 78.4381 21.0798 78.1219 21.1113C78.2383 21.8114 78.6795 22.1983 79.2401 22.4517C80.7985 23.1559 82.311 22.9327 83.7785 22.1642C84.1141 21.9883 84.4331 21.7813 84.7889 21.5714C85.5386 22.3907 86.0427 23.3187 86.3907 24.3203C86.4545 24.5041 86.2738 24.8544 86.1009 25.0216C85.039 26.048 83.6945 26.4549 82.2606 26.6035C80.1415 26.8231 78.0849 26.6349 76.2651 25.4166C73.8439 23.7956 73.0603 21.4274 73.3519 18.6747C73.6366 15.9877 74.9972 14.0027 77.6058 12.8914ZM81.0894 16.3537C79.629 15.4479 78.0725 16.1612 77.8516 17.8271C77.7908 18.2857 77.9261 18.5283 78.4253 18.4846C79.2695 18.4107 80.1143 18.3431 80.9575 18.2603C82.082 18.1499 82.232 17.8322 81.5988 16.8983C81.4772 16.7189 81.307 16.5717 81.0894 16.3537Z" fill="#110C2C"/>
<path d="M143.348 22.8042C144.313 22.4366 145.223 22.0753 146.234 21.6744C146.901 22.4053 147.414 23.3658 147.768 24.4058C147.82 24.5577 147.632 24.8502 147.478 24.9994C146.416 26.026 145.08 26.4433 143.644 26.5973C141.503 26.8269 139.424 26.6444 137.594 25.4003C135.004 23.6391 134.298 21.0874 134.778 18.1764C135.634 12.9762 140.839 11.4178 144.432 12.9686C146.758 13.9721 148.321 16.4004 148.281 18.8786C148.264 19.9351 147.926 20.3414 146.881 20.4416C144.707 20.6505 142.53 20.831 140.354 21.024C140.073 21.0489 139.793 21.0787 139.471 21.1103C139.58 21.8022 140.026 22.1707 140.572 22.4473C141.434 22.8838 142.355 22.9226 143.348 22.8042ZM139.809 16.5488C139.601 16.9954 139.347 17.4279 139.198 17.8931C139.08 18.2644 139.277 18.521 139.713 18.4833C140.759 18.3927 141.803 18.2889 142.849 18.1994C143.297 18.1612 143.371 17.9111 143.274 17.5389C142.875 16.0162 141.091 15.4631 139.809 16.5488Z" fill="#110C2C"/>
<path d="M152.123 21.1944C152.145 20.198 152.168 19.2578 152.179 18.3175C152.188 17.5944 152.043 17.4561 151.301 17.432C151.083 17.4249 150.865 17.4082 150.577 17.3919C150.577 16.3055 150.553 15.2505 150.604 14.1989C150.611 14.0536 150.972 13.838 151.193 13.8051C152.033 13.6796 152.053 13.7028 152.061 12.8552C152.071 11.7351 152.034 10.6144 152.052 9.4946C152.068 8.54001 152.151 8.49869 153.065 8.6387C154.222 8.81596 155.381 8.98946 156.543 9.13029C157.001 9.18576 157.165 9.35778 157.119 9.82347C157.029 10.7587 156.97 11.6982 156.936 12.6372C156.912 13.3263 157.057 13.4453 157.745 13.4243C158.534 13.4002 159.323 13.3827 160.11 13.3295C160.592 13.2969 160.685 13.5035 160.66 13.9331C160.599 14.9501 160.562 15.9695 160.56 16.9881C160.559 17.4071 160.425 17.5621 160.003 17.5499C159.174 17.5259 158.342 17.557 157.514 17.5191C157.098 17.5001 156.963 17.6812 156.97 18.0355C156.99 19.0153 156.978 19.9983 157.058 20.9736C157.137 21.9321 157.777 22.3708 158.864 22.2656C159.364 22.2172 159.858 22.0931 160.353 21.9973C160.776 21.9156 161.015 22.0104 160.966 22.5078C160.887 23.3034 160.868 24.1056 160.763 24.8971C160.735 25.1093 160.53 25.3714 160.333 25.4775C158.372 26.5334 156.292 26.831 154.122 26.2804C152.833 25.9533 152.079 24.9708 152.058 23.6501C152.045 22.8508 152.096 22.0505 152.123 21.1944Z" fill="#110C2C"/>
<path d="M114.158 12.28C114.149 16.6979 114.14 21.059 114.138 25.42C114.137 26.2728 114.151 26.3044 113.287 26.3293C112.136 26.3626 110.982 26.3654 109.831 26.3341C109.011 26.3117 108.973 26.2409 108.976 25.4492C108.993 20.9467 109.041 16.444 109.015 11.9418C109.007 10.5465 108.828 9.14952 108.676 7.75885C108.617 7.22293 108.749 7.04823 109.303 7.05936C110.8 7.08939 112.299 7.08794 113.797 7.05904C114.279 7.04972 114.435 7.18385 114.403 7.66759C114.301 9.18472 114.238 10.7044 114.158 12.28Z" fill="#110C2C"/>
<path d="M203.705 23.7664C203.744 24.4641 203.774 25.1042 203.823 25.7429C203.852 26.125 203.688 26.3099 203.306 26.3093C201.949 26.3072 200.593 26.3047 199.237 26.2996C198.708 26.2976 198.626 25.9635 198.632 25.5305C198.655 23.6082 198.674 21.6857 198.68 19.7633C198.686 17.8585 198.589 15.9612 198.088 14.1093C197.982 13.7165 198.1 13.5579 198.488 13.4982C199.827 13.2926 201.165 13.0811 202.499 12.8507C202.917 12.7786 203.101 12.9253 203.147 13.3241C203.19 13.6981 203.259 14.0693 203.322 14.4835C203.999 14.1343 204.594 13.7366 205.25 13.5136C205.926 13.2836 206.658 13.1939 207.373 13.1004C207.798 13.0448 208.027 13.2429 207.997 13.7398C207.921 15.0171 207.881 16.2972 207.859 17.5767C207.851 18.0855 207.599 18.2482 207.142 18.2413C206.455 18.2309 205.764 18.1684 205.083 18.2264C204.046 18.3148 203.709 18.697 203.694 19.7432C203.675 21.0645 203.699 22.3865 203.705 23.7664Z" fill="#110C2C"/>
<path d="M140.855 36.5176C140.855 37.1176 140.855 37.6575 140.855 38.1975C140.854 40.4172 139.519 41.4106 137.32 40.8425C136.927 40.741 136.764 40.5589 136.925 40.1165C137.884 40.1877 138.968 40.6132 139.719 39.6887C140.003 39.339 139.994 38.7568 140.114 38.2953C139.466 38.4216 138.958 38.6302 138.468 38.5948C137.211 38.5041 136.427 37.4329 136.549 36.072C136.582 35.6985 136.659 35.3176 136.787 34.9657C137.219 33.7825 138.715 33.0424 139.969 34.0858C140.234 33.9362 140.469 33.8038 140.855 33.5859C140.855 34.6741 140.855 35.5658 140.855 36.5176ZM140.031 35.4135C140.114 34.9161 139.852 34.6252 139.43 34.4278C138.931 34.1944 138.45 34.2101 138.008 34.5502C137.194 35.1761 137.138 36.9738 137.917 37.6389C138.403 38.0542 138.947 38.0169 139.51 37.8002C140.033 37.5991 140.065 37.1895 140.036 36.7239C140.011 36.3259 140.031 35.9252 140.031 35.4135Z" fill="#52CFAC"/>
<path d="M104.888 35.4369C104.888 34.2185 104.888 33.0601 104.888 31.8563C105.162 31.8563 105.393 31.8563 105.702 31.8563C105.702 32.77 105.702 33.6971 105.702 34.6641C106.904 34.6641 108.029 34.6641 109.232 34.6641C109.232 33.7511 109.232 32.823 109.232 31.8535C109.539 31.8535 109.771 31.8535 110.102 31.8535C110.102 32.0408 110.102 32.2309 110.102 32.4209C110.102 34.2429 110.08 36.0652 110.114 37.8865C110.125 38.5017 109.88 38.6226 109.281 38.456C109.281 37.4911 109.281 36.5028 109.281 35.4772C108.084 35.4772 106.959 35.4772 105.753 35.4772C105.753 36.4511 105.753 37.4374 105.753 38.4783C105.443 38.4936 105.211 38.5051 104.888 38.5211C104.888 37.482 104.888 36.4895 104.888 35.4369Z" fill="#52CFAC"/>
<path d="M147.413 31.8114C147.829 31.8653 148.2 31.8746 148.541 31.9798C149.382 32.2388 149.827 32.8353 149.853 33.6508C149.879 34.4569 149.479 35.1449 148.684 35.4321C148.145 35.6271 147.553 35.6901 146.98 35.7821C146.726 35.8228 146.46 35.789 146.133 35.789C146.133 36.6959 146.133 37.565 146.133 38.4163C145.341 38.6095 145.274 38.5658 145.273 37.8879C145.271 36.0701 145.271 34.2523 145.273 32.4345C145.273 32.2579 145.289 32.0813 145.302 31.8105C146.001 31.8105 146.678 31.8105 147.413 31.8114ZM147.783 32.5641C147.246 32.5641 146.71 32.5641 146.114 32.5641C146.114 32.9564 146.114 33.2902 146.114 33.6241C146.114 35.1684 146.114 35.1684 147.664 34.9616C148.463 34.8551 148.915 34.4516 148.975 33.7922C149.029 33.1958 148.701 32.8296 147.783 32.5641Z" fill="#52CFAC"/>
<path d="M24.6081 29.8398C23.9291 31.2469 22.7276 32.1092 21.5508 33.1286C21.5508 31.4101 21.5508 29.7888 21.5508 28.1021C22.2862 28.1021 22.9756 28.0205 23.6359 28.1229C24.4511 28.2492 24.7984 28.9289 24.6081 29.8398Z" fill="#110C2C"/>
<path d="M18.3139 23.6214C18.8136 23.1931 19.2827 22.7948 19.7519 22.3965C19.8089 22.4187 19.8659 22.441 19.9229 22.4633C19.9229 23.9537 19.9229 25.4442 19.9229 27.0551C19.233 27.0241 18.46 27.0821 17.7298 26.934C16.7153 26.7283 16.4082 25.7684 17.048 24.9673C17.4219 24.4991 17.869 24.0881 18.3139 23.6214Z" fill="#52CFAC"/>
<path d="M121.316 33.9557C121.85 34.3544 122.007 34.8689 122.002 35.4592C121.996 36.2588 122.018 37.0592 121.99 37.8579C121.982 38.0779 121.841 38.2933 121.761 38.5109C121.543 38.4145 121.324 38.3181 121.029 38.1879C120.065 38.7577 119.197 38.7911 118.577 38.2197C118.12 37.7984 117.942 37.0002 118.263 36.4506C118.952 35.2705 120.049 35.529 121.115 35.7263C121.322 34.4496 120.829 34.1981 118.6 34.4505C118.429 34.0545 118.522 33.8194 118.983 33.7295C119.772 33.5757 120.544 33.509 121.316 33.9557ZM121.01 36.3732C120.592 36.3375 120.172 36.2619 119.756 36.2762C119.235 36.294 118.947 36.5869 118.97 37.1306C118.992 37.6539 119.318 37.9553 119.872 37.957C120.841 37.9601 121.3 37.3875 121.01 36.3732Z" fill="#52CFAC"/>
<path d="M154.624 38.1061C154.06 38.4934 153.504 38.7297 152.833 38.5872C152.072 38.4259 151.627 37.9357 151.583 37.1813C151.543 36.4983 151.942 35.8425 152.647 35.6955C153.26 35.5677 153.911 35.6173 154.564 35.5877C154.817 34.4518 154.082 34.0867 152.113 34.4638C151.919 34.037 152.047 33.755 152.521 33.7243C153.098 33.6869 153.695 33.6332 154.254 33.7375C155.043 33.8844 155.443 34.4567 155.45 35.2488C155.461 36.3062 155.453 37.3638 155.453 38.4351C155.044 38.6044 154.771 38.5517 154.624 38.1061ZM154.635 36.7149C154.52 36.5814 154.42 36.3527 154.286 36.3322C153.894 36.2717 153.464 36.2071 153.097 36.3125C152.833 36.3887 152.487 36.7204 152.467 36.9618C152.443 37.2457 152.654 37.6753 152.9 37.831C153.607 38.2788 154.622 37.6547 154.635 36.7149Z" fill="#52CFAC"/>
<path d="M112.574 37.6775C112.089 36.8396 112.093 35.9953 112.346 35.1451C112.659 34.0931 113.533 33.5357 114.661 33.6305C115.543 33.7046 116.15 34.3669 116.291 35.4367C116.324 35.6883 116.295 35.9478 116.295 36.2661C115.207 36.2661 114.144 36.2661 113.093 36.2661C112.891 37.6443 113.973 38.178 116.022 37.7588C116.193 38.169 116.114 38.44 115.627 38.5217C114.492 38.7119 113.402 38.7429 112.574 37.6775ZM114.678 34.3402C113.754 34.1921 113.156 34.648 113.106 35.5482C113.881 35.5482 114.655 35.5482 115.454 35.5482C115.454 34.9884 115.266 34.5882 114.678 34.3402Z" fill="#52CFAC"/>
<path d="M176.313 35.0329C176.373 35.4492 176.416 35.8197 176.467 36.2619C175.306 36.2619 174.222 36.2619 173.14 36.2619C173.11 37.7029 173.962 38.111 176.17 37.7739C176.349 38.2225 176.158 38.5011 175.712 38.5185C175.055 38.5441 174.369 38.5882 173.746 38.4307C173.327 38.3251 172.903 37.9477 172.644 37.5802C172.064 36.7577 172.226 35.1173 172.879 34.3503C173.41 33.7262 174.108 33.5136 174.9 33.6479C175.656 33.7762 176.097 34.2687 176.313 35.0329ZM175.42 34.8857C175.005 34.3025 174.618 34.1454 174.042 34.3618C173.51 34.5618 173.214 34.9395 173.181 35.5375C174.014 35.5375 174.786 35.5375 175.601 35.5375C175.547 35.3093 175.506 35.1379 175.42 34.8857Z" fill="#52CFAC"/>
<path d="M90.3101 36.3676C90.2148 37.3363 89.8393 38.0763 88.939 38.4456C88.1114 38.7851 87.3129 38.6783 86.5963 38.1503C85.7506 37.5272 85.4764 36.0418 85.9718 34.908C86.3977 33.9333 87.3609 33.4562 88.518 33.6468C89.4723 33.8039 90.1879 34.6075 90.2959 35.656C90.3183 35.8736 90.3076 36.0945 90.3101 36.3676ZM89.4533 36.6275C89.4513 36.2686 89.4861 35.905 89.4395 35.5519C89.346 34.8429 88.7971 34.3301 88.1214 34.2634C87.5607 34.2081 86.9903 34.5657 86.7538 35.1581C86.4653 35.8807 86.4738 36.6051 86.865 37.2922C87.2555 37.9781 88.2081 38.206 88.7917 37.7053C89.0781 37.4595 89.2291 37.0595 89.4533 36.6275Z" fill="#52CFAC"/>
<path d="M80.143 33.1051C79.8924 32.6956 79.6664 32.3227 79.416 31.9097C79.9531 31.7129 80.2848 31.7921 80.5523 32.2686C81.0614 33.1752 81.621 34.0541 82.2211 35.0462C82.7934 34.1058 83.3472 33.2593 83.8315 32.3757C84.1077 31.8716 84.4399 31.6742 85.0546 31.8857C84.5125 32.7642 84.017 33.6561 83.4336 34.4878C82.8338 35.343 82.4982 36.2313 82.6379 37.2833C82.6875 37.656 82.6459 38.0406 82.6459 38.4105C81.8765 38.6281 81.7433 38.5721 81.814 37.8582C81.9541 36.4418 81.6522 35.1782 80.741 34.0596C80.5146 33.7817 80.3568 33.4491 80.143 33.1051Z" fill="#52CFAC"/>
<path d="M95.4151 36.9311C95.4189 35.8613 95.4189 34.8449 95.4189 33.7852C95.7093 33.7852 95.9397 33.7852 96.2064 33.7852C96.2064 34.9193 96.2843 36.0583 96.1826 37.1813C96.0956 38.1426 95.1866 38.7078 94.133 38.6364C93.0421 38.5625 92.3254 37.9532 92.2766 36.9484C92.2264 35.9135 92.2655 34.8743 92.2655 33.7893C92.5295 33.7893 92.7593 33.7893 93.0856 33.7893C93.0856 34.7721 93.0843 35.764 93.0861 36.7559C93.0871 37.281 93.2711 37.6889 93.8151 37.8738C94.5825 38.1346 95.1703 37.8103 95.4151 36.9311Z" fill="#52CFAC"/>
<path d="M130.587 33.9447C131.058 33.5225 131.263 33.7641 131.321 34.1361C131.928 33.9592 132.494 33.6952 133.079 33.6474C133.885 33.5815 134.467 34.0806 134.512 34.8776C134.579 36.0478 134.529 37.2246 134.529 38.4353C134.282 38.4353 134.074 38.4353 133.786 38.4353C133.786 37.8943 133.79 37.381 133.784 36.8678C133.778 36.3291 133.794 35.7872 133.74 35.2527C133.668 34.5459 133.346 34.2508 132.768 34.2704C132.105 34.293 131.396 34.8903 131.39 35.4541C131.38 36.43 131.387 37.4062 131.387 38.4278C131.115 38.4278 130.887 38.4278 130.58 38.4278C130.58 36.9422 130.58 35.4696 130.587 33.9447Z" fill="#52CFAC"/>
<path d="M169.877 34.0313C170.026 34.3165 170.238 34.5657 170.246 34.8209C170.282 36.0156 170.262 37.212 170.262 38.4397C170.024 38.4397 169.829 38.4397 169.524 38.4397C169.524 38.0696 169.532 37.6997 169.522 37.3304C169.501 36.5519 169.51 35.7697 169.43 34.9968C169.376 34.4739 168.947 34.2183 168.428 34.2774C167.656 34.3653 167.125 34.9514 167.125 35.7169C167.124 36.6133 167.124 37.5096 167.124 38.4351C166.849 38.4351 166.64 38.4351 166.396 38.4351C166.396 36.8836 166.396 35.3689 166.396 33.8327C166.875 33.5269 166.988 33.9151 167.121 34.2959C167.989 33.5835 168.874 33.3099 169.877 34.0313Z" fill="#52CFAC"/>
<path d="M21.7507 17.0446C21.7917 16.2076 21.8482 15.4298 21.8648 14.6512C21.8727 14.282 22.0324 14.1451 22.3802 14.1698C22.842 14.2025 23.3152 14.1847 23.7626 14.2823C24.4954 14.4421 24.7673 15.0644 24.3013 15.6324C23.5603 16.5356 22.7266 17.3646 21.9321 18.2249C21.8714 18.1989 21.8107 18.1728 21.75 18.1467C21.75 17.799 21.75 17.4513 21.7507 17.0446Z" fill="#110C2C"/>
<path d="M22.1695 1.16172C22.5665 0.442762 23.1682 0.130329 23.925 0.105063C24.546 0.0843321 25.1682 0.100838 25.8985 0.236357C24.6358 1.40862 23.3731 2.58088 22.1104 3.75313C22.0388 3.7312 21.9671 3.70927 21.8955 3.68734C21.9792 2.85929 22.063 2.03123 22.1695 1.16172Z" fill="#110C2C"/>
<path d="M163.191 38.5585C162.485 38.3465 162.219 37.8896 162.234 37.2288C162.247 36.6084 162.236 35.9875 162.236 35.3668C162.236 34.4572 162.236 34.4572 161.327 34.3196C161.327 34.1559 161.327 33.9866 161.327 33.7794C161.612 33.7558 161.886 33.7332 162.206 33.7067C162.225 33.2969 162.242 32.9053 162.262 32.4736C162.493 32.4736 162.703 32.4736 162.977 32.4736C162.977 32.8632 162.977 33.2539 162.977 33.7058C163.47 33.7058 163.906 33.7058 164.41 33.7058C164.422 33.9456 164.43 34.1277 164.443 34.3852C163.953 34.3852 163.519 34.3852 163.023 34.3852C163.023 35.4085 162.995 36.3623 163.035 37.3134C163.054 37.771 163.434 37.9321 163.857 37.9414C164.056 37.9458 164.255 37.9021 164.473 37.8782C164.662 38.378 164.488 38.6007 163.97 38.5873C163.727 38.5811 163.484 38.5728 163.191 38.5585Z" fill="#52CFAC"/>
<path d="M125.066 37.5919C125.066 37.9269 125.066 38.2033 125.066 38.5199C124.775 38.5199 124.528 38.5199 124.248 38.5199C124.248 36.0981 124.248 33.6939 124.248 31.2607C124.514 31.2607 124.748 31.2607 125.066 31.2607C125.066 33.3559 125.066 35.4445 125.066 37.5919Z" fill="#52CFAC"/>
<path d="M99.2668 34.3165C99.8064 33.8975 100.314 33.505 101.077 33.6641C101.077 33.8742 101.077 34.0828 101.077 34.2893C99.2745 34.7675 99.2745 34.7675 99.2745 36.6107C99.2745 37.0306 99.2438 37.4533 99.2818 37.8698C99.3355 38.4586 99.0945 38.6371 98.4971 38.4652C98.4971 36.9317 98.4971 35.3839 98.4971 33.834C99.0542 33.6984 99.0542 33.6984 99.2668 34.3165Z" fill="#52CFAC"/>
<path d="M159.793 34.4245C158.704 34.6944 158.504 34.9452 158.504 36.0015C158.504 36.8155 158.504 37.6295 158.504 38.4801C158.233 38.4801 158.023 38.4801 157.777 38.4801C157.777 36.9019 157.777 35.3553 157.777 33.7774C157.954 33.7659 158.108 33.7559 158.295 33.7437C158.365 33.9387 158.429 34.1202 158.471 34.238C159.063 33.9893 159.645 33.7448 160.346 33.4502C160.346 33.8637 160.346 34.0689 160.346 34.3118C160.185 34.3432 160.013 34.377 159.793 34.4245Z" fill="#52CFAC"/>
<path d="M178.968 33.7516C179.119 33.9601 179.221 34.1628 179.329 34.3784C179.812 33.8931 180.345 33.5282 181.13 33.6585C181.13 33.8682 181.13 34.0744 181.13 34.3163C181.02 34.3358 180.906 34.3556 180.792 34.376C179.527 34.6035 179.286 34.8868 179.286 36.1468C179.286 36.8999 179.286 37.653 179.286 38.4361C179.009 38.4361 178.801 38.4361 178.527 38.4361C178.527 36.9488 178.519 35.4975 178.543 34.0467C178.545 33.9444 178.787 33.8461 178.968 33.7516Z" fill="#52CFAC"/>
<path d="M19.6193 12.0582C19.1098 12.1401 18.63 12.2619 18.1673 12.2159C17.5592 12.1555 17.2686 11.4536 17.6774 10.9967C18.229 10.3802 18.8797 9.85027 19.4879 9.2832C19.5442 9.312 19.6005 9.34079 19.6567 9.36958C19.6567 10.2542 19.6567 11.1388 19.6193 12.0582Z" fill="#52CFAC"/>
<path d="M128.248 34.025C128.247 35.4756 128.243 36.8694 128.238 38.2632C128.238 38.3002 128.215 38.3371 128.181 38.4393C127.997 38.4491 127.788 38.4601 127.532 38.4736C127.532 36.8915 127.532 35.3512 127.532 33.6504C127.816 33.7769 128.031 33.8725 128.248 34.025Z" fill="#52CFAC"/>
<path d="M128.168 32.5895C127.861 32.6171 127.506 32.8278 127.427 32.3437C127.338 31.8007 127.498 31.6827 128.205 31.811C128.205 32.0547 128.205 32.3047 128.168 32.5895Z" fill="#52CFAC"/>
<path d="M15.5634 39.0478C15.5594 39.1007 15.5334 39.1309 15.464 39.1539C15.4205 39.1468 15.3936 39.1189 15.3936 39.1189C15.3982 39.0776 15.4168 39.0437 15.4723 38.9995C15.5108 38.9962 15.5261 39.0107 15.5634 39.0478Z" fill="#52CFAC"/>
<path d="M15.3195 39.2873C15.3253 39.245 15.3311 39.2027 15.365 39.1394C15.393 39.1184 15.4199 39.1463 15.4334 39.1603C15.422 39.2045 15.3971 39.2348 15.3439 39.2741C15.3155 39.2832 15.3195 39.2873 15.3195 39.2873Z" fill="#52CFAC"/>
<path d="M15.3146 39.2806C15.3027 39.2795 15.2924 39.2809 15.3011 39.2847C15.3201 39.2872 15.3161 39.2831 15.3146 39.2806Z" fill="#52CFAC"/>
</svg>
