<svg width="71" height="70" viewBox="0 0 71 70" fill="none" xmlns="http://www.w3.org/2000/svg">
<g clip-path="url(#clip0_12_14679)">
<path d="M69.6517 62.4886L58.4768 51.3138L57.1522 49.2939L52.6805 53.5338L54.3808 55.4098L65.5557 66.5847C66.6867 67.7157 68.5206 67.7157 69.6517 66.5847C70.7829 65.4535 70.7829 63.6197 69.6517 62.4886Z" fill="#4543A8"/>
<path d="M40.1862 55.563C50.372 55.563 58.6293 47.3057 58.6293 37.1199C58.6293 26.934 50.372 18.6768 40.1862 18.6768C30.0004 18.6768 21.7431 26.934 21.7431 37.1199C21.7431 47.3057 30.0004 55.563 40.1862 55.563Z" fill="#F9F7F8"/>
<path d="M18.6748 34.768C18.5113 34.7682 18.3501 34.7299 18.2043 34.656C18.0585 34.5821 17.9322 34.4748 17.8357 34.3429L16.7185 32.8172C16.7112 32.8071 16.704 32.7969 16.6971 32.7865C16.1558 31.9868 15.8082 31.0719 15.6818 30.1144C15.6462 29.8412 15.7205 29.565 15.8885 29.3466C16.0564 29.1281 16.3043 28.9854 16.5775 28.9497C16.8508 28.914 17.127 28.9884 17.3454 29.1563C17.5638 29.3243 17.7066 29.5722 17.7422 29.8454C17.8253 30.4754 18.0527 31.0776 18.4066 31.6054L19.5122 33.115C19.6749 33.3373 19.7428 33.6152 19.7007 33.8875C19.6586 34.1598 19.5101 34.4042 19.2878 34.567C19.1101 34.6978 18.8953 34.7682 18.6748 34.768ZM16.6667 26.42C16.3912 26.42 16.1269 26.3105 15.9321 26.1157C15.7373 25.9208 15.6278 25.6566 15.6278 25.381V23.9022C15.6278 20.4796 18.4123 17.6953 21.8347 17.6953C23.1678 17.6953 24.4386 18.1119 25.5097 18.8998C25.5443 18.9253 25.5774 18.9528 25.6086 18.9825L27.7172 20.9801C28.1338 21.3748 28.1515 22.0324 27.7568 22.4489C27.3622 22.8654 26.7046 22.8833 26.2881 22.4885L24.2289 20.5377C23.5277 20.0373 22.7013 19.7732 21.8347 19.7732C19.5579 19.7732 17.7057 21.6255 17.7057 23.9022V25.381C17.7057 25.6566 17.5962 25.9208 17.4014 26.1157C17.2065 26.3105 16.9423 26.42 16.6667 26.42Z" fill="#52CFAC"/>
<path d="M29.4175 36.427C29.4175 29.2825 32.7814 22.9086 38.0083 18.8057C28.8508 19.8601 21.7427 27.6866 21.7431 37.1195C21.7434 47.2886 30.0171 55.5626 40.1862 55.5626H40.1913C33.7367 51.6288 29.4175 44.5225 29.4175 36.427Z" fill="#F3F0F3"/>
<path d="M19.0186 35.8792C18.7544 35.8783 18.5004 35.7767 18.3084 35.5952C18.1164 35.4138 18.0007 35.1659 17.9849 34.9022C17.9691 34.6385 18.0543 34.3786 18.2233 34.1755C18.3923 33.9723 18.6322 33.8412 18.8944 33.8087L21.9752 33.434C21.9993 33.4311 22.0237 33.429 22.0481 33.4278C24.2437 33.3164 25.9637 31.5052 25.9637 29.304V20.6542C25.9637 20.3786 26.0732 20.1144 26.268 19.9195C26.4629 19.7247 26.7271 19.6152 27.0027 19.6152C27.2782 19.6152 27.5425 19.7247 27.7373 19.9195C27.9322 20.1144 28.0416 20.3786 28.0416 20.6542V29.304C28.0416 32.5999 25.4752 35.3146 22.1915 35.5008L19.1453 35.8712C19.1033 35.8765 19.0609 35.8792 19.0186 35.8792Z" fill="#52CFAC"/>
<path d="M19.0188 40.7471C18.7549 40.7468 18.501 40.6461 18.3086 40.4654C18.1162 40.2848 17.9998 40.0377 17.9829 39.7743C17.9654 39.4993 18.0578 39.2286 18.2399 39.0218C18.4219 38.815 18.6786 38.6889 18.9536 38.6713L22.0342 38.4748C22.0474 38.4739 22.0605 38.4734 22.0737 38.473C24.4686 38.4115 26.7136 37.4292 28.3946 35.7072C30.0786 33.9823 31.006 31.7084 31.006 29.3046V23.9018C31.0068 22.9782 30.8674 22.0598 30.5927 21.1781L29.5148 18.6517C29.4067 18.3982 29.4037 18.1122 29.5064 17.8566C29.6092 17.6009 29.8093 17.3965 30.0627 17.2884C30.3162 17.1803 30.6022 17.1773 30.8579 17.28C31.1135 17.3828 31.3179 17.5829 31.426 17.8363L32.5238 20.4096C32.5367 20.4399 32.5482 20.4709 32.5583 20.5024C32.9076 21.6017 33.0849 22.7484 33.084 23.9019V29.3048C33.084 32.2542 31.9467 35.0435 29.8816 37.1589C27.8251 39.2655 25.079 40.4692 22.1474 40.5499L19.0859 40.7452C19.0636 40.7465 19.0412 40.7471 19.0188 40.7471Z" fill="#52CFAC"/>
<path d="M29.4174 36.4272C29.4174 35.7128 29.4508 35.0094 29.5165 34.3119C29.1886 34.8124 28.8129 35.2798 28.3946 35.7075C26.7134 37.4295 24.4686 38.4117 22.0737 38.4733C22.0605 38.4736 22.0474 38.4742 22.0342 38.4751L21.7939 38.4905C21.8452 39.1833 21.9358 39.8727 22.0651 40.5553L22.1471 40.5501C24.8783 40.475 27.4461 39.4272 29.4478 37.5805C29.4286 37.1992 29.4174 36.8131 29.4174 36.4272ZM31.0063 23.8992V28.1415C31.5636 26.7484 32.2597 25.415 33.0842 24.1614V23.8992C33.085 22.7457 32.9077 21.599 32.5585 20.4997C32.5485 20.4682 32.537 20.4372 32.524 20.4069L32.5017 20.3545C31.8633 20.6482 31.2423 20.9783 30.6417 21.3431C30.8836 22.1736 31.0064 23.0342 31.0063 23.8992Z" fill="#52CFAC"/>
<path d="M37.0877 25.1861C36.8122 25.1861 36.5479 25.0767 36.3531 24.8818C36.1582 24.687 36.0488 24.4228 36.0488 24.1472V24.1122C36.0501 22.5508 35.7991 20.9996 35.3056 19.5183L33.7788 16.3261C33.7199 16.2031 33.6858 16.0696 33.6785 15.9334C33.6712 15.7971 33.6908 15.6608 33.7362 15.5321C33.7816 15.4035 33.8519 15.285 33.9431 15.1835C34.0343 15.082 34.1445 14.9995 34.2676 14.9406C34.3907 14.8817 34.5242 14.8477 34.6604 14.8404C34.7966 14.8331 34.933 14.8527 35.0616 14.8981C35.1903 14.9434 35.3088 15.0137 35.4102 15.1049C35.5117 15.1961 35.5943 15.3064 35.6531 15.4295L37.2075 18.679C37.2255 18.7165 37.2412 18.755 37.2545 18.7945C37.8335 20.5076 38.1281 22.3039 38.1266 24.1122V24.1472C38.1266 24.4228 38.0172 24.687 37.8223 24.8818C37.6275 25.0767 37.3632 25.1861 37.0877 25.1861Z" fill="#52CFAC"/>
<path d="M35.227 19.3535L35.3056 19.5181C35.457 19.9718 35.5857 20.4328 35.6912 20.8993C36.2368 20.333 36.8116 19.7956 37.4132 19.2892C37.374 19.16 37.3329 19.0317 37.2905 18.9033C36.5946 19.0137 35.9057 19.164 35.227 19.3535Z" fill="#52CFAC"/>
<path d="M1.53921 38.2174C1.29312 38.2174 1.05503 38.13 0.867335 37.9709C0.679635 37.8117 0.554509 37.5911 0.514236 37.3484C0.473964 37.1056 0.521159 36.8564 0.647419 36.6452C0.773679 36.434 0.970807 36.2744 1.2037 36.1949L3.47051 35.4211C4.07506 35.2148 4.59991 34.8245 4.97153 34.3049C5.34314 33.7854 5.54291 33.1625 5.54283 32.5238V23.9023C5.54283 19.608 7.20512 15.553 10.2237 12.484C13.2384 9.41876 17.2581 7.68887 21.5421 7.61282C26.7214 7.52139 31.6905 9.97715 34.8306 14.1826C34.8414 14.197 34.8516 14.2117 34.8617 14.2267L36.4803 16.6469C36.5561 16.7603 36.6089 16.8876 36.6356 17.0214C36.6622 17.1552 36.6623 17.2929 36.6357 17.4267C36.6092 17.5605 36.5565 17.6878 36.4807 17.8013C36.405 17.9148 36.3076 18.0122 36.1942 18.088C35.9652 18.2412 35.6847 18.2971 35.4144 18.2434C35.1442 18.1898 34.9063 18.031 34.7531 17.802L33.1496 15.4047C30.4075 11.7465 26.0858 9.60673 21.5788 9.69054C17.8424 9.75676 14.3358 11.2663 11.7051 13.9412C9.07118 16.6191 7.6207 20.1567 7.6207 23.9024V32.5239C7.6208 33.5962 7.28542 34.6418 6.66154 35.514C6.03766 36.3861 5.15655 37.0413 4.14166 37.3876L1.87485 38.1614C1.76681 38.1984 1.65341 38.2173 1.53921 38.2174Z" fill="#52CFAC"/>
<path d="M42.1301 30.3436C41.8545 30.3436 41.5903 30.2342 41.3954 30.0393C41.2006 29.8445 41.0911 29.5802 41.0911 29.3047V23.9018C41.0911 22.2534 40.8817 20.6163 40.4685 19.0355L39.6408 16.6357C39.555 16.3762 39.5749 16.0934 39.6962 15.8485C39.8174 15.6037 40.0302 15.4164 40.2886 15.3273C40.5469 15.2382 40.8299 15.2544 41.0763 15.3725C41.3228 15.4906 41.5128 15.701 41.6052 15.9582L42.4456 18.3949C42.4541 18.4193 42.4615 18.444 42.4681 18.4689C42.9342 20.2422 43.1698 22.0682 43.169 23.9017V29.3045C43.169 29.441 43.1421 29.5761 43.0899 29.7022C43.0377 29.8282 42.9612 29.9428 42.8647 30.0393C42.7683 30.1358 42.6537 30.2123 42.5277 30.2645C42.4016 30.3167 42.2665 30.3436 42.1301 30.3436Z" fill="#52CFAC"/>
<path d="M40.7389 17.6707C40.5393 17.6708 40.3438 17.6133 40.176 17.5052C40.0081 17.3971 39.8749 17.243 39.7924 17.0612L38.6011 14.4384C35.1769 8.39662 28.7567 4.64539 21.8347 4.64539C19.856 4.64405 17.889 4.94876 16.0035 5.5487C15.7424 5.62723 15.4608 5.59997 15.2196 5.4728C14.9784 5.34562 14.7969 5.12873 14.7142 4.86891C14.6314 4.60909 14.6541 4.32716 14.7774 4.08393C14.9007 3.84071 15.1146 3.65569 15.3731 3.56878C17.4625 2.90385 19.6421 2.56606 21.8348 2.56739C29.5204 2.56739 36.6469 6.74001 40.4332 13.4566C40.4481 13.4828 40.4617 13.5098 40.4741 13.5373L41.6843 16.2016C41.7983 16.4525 41.8079 16.7384 41.7111 16.9963C41.6143 17.2543 41.4189 17.4632 41.1681 17.5772C41.0334 17.6387 40.887 17.6706 40.7389 17.6707Z" fill="#52CFAC"/>
<path d="M20.7184 45.8873C20.468 45.887 20.2261 45.7962 20.0373 45.6317C19.8485 45.4672 19.7254 45.2401 19.6908 44.9921C19.6719 44.8569 19.6798 44.7194 19.7141 44.5873C19.7484 44.4553 19.8083 44.3313 19.8905 44.2224C19.9727 44.1135 20.0755 44.0218 20.1932 43.9527C20.3108 43.8835 20.4409 43.8382 20.576 43.8193L23.1603 43.4582C23.1751 43.4561 23.1899 43.4543 23.2048 43.4529C25.8133 43.2023 28.3011 42.2296 30.3991 40.64C31.2983 39.9588 32.4486 39.7274 33.5546 40.006L39.9324 41.6119C40.0652 41.6448 40.1901 41.7035 40.3002 41.7848C40.4102 41.8661 40.5031 41.9683 40.5735 42.0856C40.6439 42.2029 40.6905 42.3329 40.7105 42.4682C40.7306 42.6035 40.7237 42.7414 40.6903 42.8741C40.6569 43.0067 40.5976 43.1315 40.5159 43.2412C40.4342 43.3508 40.3316 43.4433 40.2141 43.5133C40.0965 43.5832 39.9663 43.6293 39.8309 43.6488C39.6955 43.6683 39.5576 43.6608 39.4251 43.6269L33.0473 42.021C32.556 41.8973 32.048 41.9976 31.6539 42.2962C29.2545 44.114 26.4101 45.2281 23.4261 45.519L20.8636 45.8771C20.8155 45.8839 20.767 45.8873 20.7184 45.8873Z" fill="#52CFAC"/>
<path d="M23.7508 45.4819C26.1277 45.2023 28.4131 44.3994 30.4427 43.131C30.2231 42.4331 30.0382 41.7249 29.8884 41.0088C27.9017 42.381 25.6057 43.2223 23.2046 43.453C23.1898 43.4544 23.175 43.4562 23.1602 43.4583L22.8806 43.4974C23.1325 44.1786 23.4234 44.8411 23.7508 45.4819Z" fill="#52CFAC"/>
<path d="M21.4586 45.888C21.381 45.888 21.3037 45.8793 21.2281 45.8621L17.6593 45.0535C17.646 45.0506 17.6329 45.0474 17.6198 45.0439C15.657 44.5176 13.8281 43.6356 12.184 42.4228C11.6652 42.0402 11.014 41.9014 10.3969 42.0419L3.41344 43.633C3.28042 43.6633 3.14272 43.6671 3.00821 43.6443C2.87371 43.6214 2.74503 43.5722 2.62953 43.4996C2.51402 43.427 2.41396 43.3323 2.33505 43.221C2.25614 43.1097 2.19993 42.9839 2.16963 42.8509C2.10841 42.5822 2.15641 42.3002 2.30308 42.067C2.44976 41.8337 2.68309 41.6683 2.95174 41.6071L9.93516 40.0158C11.1424 39.7407 12.4116 40.0086 13.4174 40.7506C14.8464 41.8047 16.4348 42.5722 18.1386 43.0315L21.6873 43.8356C21.8203 43.8658 21.9462 43.9218 22.0576 44.0006C22.169 44.0794 22.2638 44.1793 22.3365 44.2947C22.4093 44.4102 22.4586 44.5388 22.4817 44.6732C22.5047 44.8077 22.5011 44.9454 22.4709 45.0785C22.4188 45.3081 22.2903 45.5133 22.1064 45.6604C21.9225 45.8074 21.6941 45.8877 21.4586 45.888ZM22.6183 50.8103C22.5832 50.8103 22.5478 50.8085 22.5122 50.8049L20.3662 50.587C17.5509 50.3948 14.8469 49.6592 12.3287 48.4007C12.275 48.3738 12.2186 48.3661 12.17 48.3788L8.14432 49.4317C7.87934 49.4968 7.59942 49.4549 7.36501 49.3153C7.1306 49.1757 6.96051 48.9495 6.89147 48.6856C6.82242 48.4216 6.85997 48.1411 6.99599 47.9046C7.13202 47.6681 7.35561 47.4945 7.61848 47.4215L11.6441 46.3686C12.1802 46.2281 12.7532 46.2899 13.2575 46.5419C15.5336 47.6793 17.9783 48.3431 20.5238 48.515C20.5354 48.5157 20.5471 48.5168 20.5587 48.5179L22.7219 48.7375C22.8576 48.7512 22.9893 48.7916 23.1095 48.8563C23.2296 48.9209 23.3358 49.0086 23.4221 49.1144C23.5083 49.2201 23.5729 49.3418 23.6121 49.4724C23.6513 49.6031 23.6644 49.7403 23.6506 49.876C23.6247 50.1319 23.5048 50.3691 23.3141 50.5417C23.1234 50.7143 22.8755 50.81 22.6183 50.8103ZM21.8347 55.6818C18.7152 55.6818 15.657 55.1381 12.745 54.0658C12.2065 53.8676 11.9309 53.2702 12.1291 52.7318C12.3273 52.1934 12.9245 51.9173 13.4631 52.1159C16.1444 53.1032 18.961 53.6039 21.8347 53.6039C22.7955 53.6039 23.7635 53.5469 24.7121 53.4343L29.784 52.6855C30.3511 52.601 30.8797 52.994 30.9635 53.5616C31.0473 54.1291 30.6552 54.6573 30.0875 54.7411L25.0012 55.492C24.9916 55.4934 24.9821 55.4948 24.9725 55.4959C23.938 55.6192 22.8822 55.6818 21.8347 55.6818ZM21.8347 60.7244C19.1355 60.7246 16.4476 60.3769 13.8374 59.6899C13.6457 59.6394 13.4726 59.5352 13.3382 59.3895C13.2039 59.2438 13.114 59.0627 13.0792 58.8676L13.0762 58.8501C13.0429 58.6633 13.0613 58.4708 13.1297 58.2938C13.198 58.1167 13.3135 57.9617 13.4637 57.8456C13.6139 57.7295 13.793 57.6568 13.9816 57.6354C14.1702 57.6139 14.361 57.6446 14.5335 57.7239C16.9189 58.3367 19.3719 58.6467 21.8348 58.6465C24.3715 58.6465 29.3164 57.6592 29.3659 57.6493L35.2457 56.4823C35.516 56.4287 35.7965 56.4846 36.0255 56.6378C36.2545 56.791 36.4133 57.0288 36.467 57.2991C36.5206 57.5693 36.4647 57.8498 36.3115 58.0788C36.1584 58.3079 35.9205 58.4667 35.6502 58.5203L29.7728 59.6868C29.5643 59.7288 24.578 60.7244 21.8347 60.7244Z" fill="#52CFAC"/>
<path d="M24.5592 50.591C24.3062 50.5912 24.0619 50.4991 23.872 50.332C23.6821 50.1649 23.5597 49.9343 23.5278 49.6834C23.4958 49.4324 23.5565 49.1785 23.6984 48.9691C23.8404 48.7598 24.0538 48.6094 24.2987 48.5461L25.9649 48.1134C25.9769 48.1104 25.989 48.1074 26.0012 48.1047C27.541 47.7635 29.0328 47.2334 30.4426 46.5263C30.9081 46.2924 31.4412 46.2209 31.9432 46.3249L34.8302 46.9235C35.0978 46.9816 35.3316 47.143 35.4808 47.3726C35.63 47.6023 35.6826 47.8815 35.627 48.1496C35.5714 48.4178 35.4122 48.6531 35.184 48.8045C34.9558 48.9559 34.677 49.011 34.4084 48.958L31.5211 48.3594C31.4757 48.3501 31.4239 48.3584 31.3748 48.3831C29.8175 49.1643 28.1698 49.7507 26.4691 50.1291L24.8208 50.5571C24.7354 50.5796 24.6475 50.591 24.5592 50.591Z" fill="#52CFAC"/>
<path d="M27.0023 50.0017C28.5149 49.6244 29.9813 49.0816 31.375 48.383C31.424 48.3584 31.4759 48.3501 31.5212 48.3593L33.0769 48.6818C32.5722 47.913 32.1153 47.1139 31.7087 46.2891C31.2727 46.2469 30.8337 46.3291 30.4426 46.5261C29.0328 47.2332 27.541 47.7633 26.0012 48.1045C25.989 48.1072 25.9769 48.1101 25.9649 48.1132L25.4823 48.2385C25.9517 48.8573 26.4594 49.4462 27.0023 50.0017Z" fill="#52CFAC"/>
<path d="M40.1862 13.9668C52.9733 13.9668 63.3391 24.3326 63.3391 37.1197C63.3391 49.9069 52.9733 60.2727 40.1862 60.2727C27.399 60.2727 17.0332 49.9069 17.0332 37.1197C17.0332 24.3326 27.399 13.9668 40.1862 13.9668ZM58.6293 37.1197C58.6293 26.9507 50.3552 18.6766 40.1862 18.6766C30.0171 18.6766 21.743 26.9507 21.743 37.1197C21.743 47.2888 30.0171 55.5628 40.1862 55.5628C50.3552 55.5628 58.6293 47.2888 58.6293 37.1197Z" fill="#4543A8"/>
<path d="M1.53921 30.3435C1.26367 30.3435 0.99941 30.234 0.804572 30.0392C0.609735 29.8444 0.500277 29.5801 0.500277 29.3046V23.9017C0.500277 20.1435 1.49599 16.4455 3.3795 13.2075C5.2058 10.068 7.82086 7.42508 10.9417 5.56456C11.0589 5.49468 11.1887 5.44858 11.3237 5.42887C11.4587 5.40916 11.5962 5.41623 11.7285 5.44969C11.8608 5.48315 11.9852 5.54233 12.0946 5.62386C12.204 5.70539 12.2962 5.80767 12.3661 5.92486C12.436 6.04206 12.4821 6.17187 12.5018 6.30688C12.5215 6.44189 12.5144 6.57947 12.4809 6.71174C12.4475 6.84401 12.3883 6.9684 12.3067 7.07779C12.2252 7.18719 12.1229 7.27945 12.0057 7.34931C9.18148 9.03523 6.83141 11.4104 5.17561 14.2524C3.47633 17.1734 2.57814 20.5101 2.57814 23.9017V29.3046C2.57814 29.441 2.55127 29.5761 2.49906 29.7021C2.44684 29.8282 2.37032 29.9427 2.27384 30.0392C2.17737 30.1357 2.06284 30.2122 1.93679 30.2644C1.81074 30.3166 1.67564 30.3435 1.53921 30.3435Z" fill="#52CFAC"/>
<path d="M42.1301 38.2167C42.0187 38.2167 41.9056 38.1987 41.7943 38.1608L39.5275 37.387C38.5127 37.0406 37.6316 36.3855 37.0077 35.5133C36.3839 34.6411 36.0485 33.5956 36.0486 32.5232V28.746C36.0486 28.4704 36.1581 28.2062 36.3529 28.0113C36.5478 27.8165 36.812 27.707 37.0876 27.707C37.3631 27.707 37.6274 27.8165 37.8222 28.0113C38.017 28.2062 38.1265 28.4704 38.1265 28.746V32.5232C38.1264 33.162 38.3262 33.7848 38.6978 34.3044C39.0694 34.8239 39.5943 35.2142 40.1988 35.4205L42.4656 36.1944C42.5947 36.2385 42.7139 36.3076 42.8163 36.3977C42.9188 36.4878 43.0024 36.5973 43.0625 36.7197C43.1227 36.8422 43.1581 36.9753 43.1667 37.1115C43.1754 37.2476 43.1572 37.3842 43.1131 37.5133C43.0431 37.7184 42.9107 37.8965 42.7344 38.0227C42.5582 38.1488 42.3469 38.2167 42.1301 38.2167Z" fill="#52CFAC"/>
<path d="M13.6404 36.4268C13.4783 36.4271 13.3184 36.3894 13.1735 36.3166C13.0286 36.2439 12.9028 36.1382 12.8062 36.0081C11.3532 34.0559 10.5852 31.7378 10.5852 29.3046V23.9018C10.5852 17.6988 15.6316 12.6523 21.8346 12.6523C23.2117 12.6514 24.577 12.905 25.8619 13.4002C26.1191 13.4992 26.3264 13.6962 26.4383 13.948C26.5502 14.1998 26.5575 14.4858 26.4586 14.743C26.3596 15.0001 26.1626 15.2075 25.9108 15.3193C25.659 15.4312 25.373 15.4385 25.1158 15.3396C24.069 14.936 22.9566 14.7294 21.8346 14.7302C16.7774 14.7302 12.6631 18.8445 12.6631 23.9018V29.3046C12.6631 31.2874 13.2889 33.1765 14.473 34.7675C14.588 34.9219 14.6578 35.1053 14.6747 35.2971C14.6915 35.489 14.6547 35.6817 14.5683 35.8539C14.4819 36.026 14.3494 36.1707 14.1856 36.2719C14.0217 36.3731 13.8329 36.4267 13.6404 36.4268Z" fill="#52CFAC"/>
</g>
<defs>
<clipPath id="clip0_12_14679">
<rect width="70" height="70" fill="white" transform="translate(0.5)"/>
</clipPath>
</defs>
</svg>
