<svg width="71" height="70" viewBox="0 0 71 70" fill="none" xmlns="http://www.w3.org/2000/svg">
<g clip-path="url(#clip0_12_14705)">
<path d="M36.3625 65.3451C28.2968 65.3451 20.7139 62.2041 15.0106 56.5009C9.30731 50.7976 6.16635 43.2147 6.16635 35.1491C6.16635 27.0836 9.30731 19.5006 15.0106 13.7974C20.7139 8.09408 28.2968 4.95312 36.3625 4.95312C44.4282 4.95312 52.011 8.09408 57.7142 13.7974C63.4175 19.5006 66.5585 27.0836 66.5585 35.1491C66.5585 43.2147 63.4175 50.7976 57.7142 56.5009C52.011 62.2041 44.4282 65.3451 36.3625 65.3451ZM36.3625 7.05879C20.8733 7.05879 8.27216 19.6601 8.27216 35.1491C8.27216 50.6381 20.8735 63.2394 36.3625 63.2394C51.8515 63.2394 64.4528 50.6381 64.4528 35.1491C64.4528 19.6601 51.8516 7.05879 36.3625 7.05879Z" fill="#4543A8"/>
<path d="M27.7155 27.3996C27.5772 27.3998 27.4402 27.3726 27.3124 27.3197C27.1847 27.2668 27.0686 27.1891 26.9709 27.0912L20.0406 20.1609L14.7648 14.8975C14.5671 14.7003 14.4559 14.4327 14.4556 14.1535C14.4552 13.8743 14.5658 13.6064 14.763 13.4087C14.9602 13.211 15.2278 13.0998 15.507 13.0995C15.7862 13.0991 16.0541 13.2097 16.2518 13.4069L21.5286 18.671L28.4599 25.6022C28.6573 25.7996 28.7682 26.0674 28.7682 26.3466C28.7682 26.6258 28.6573 26.8936 28.4599 27.091C28.3623 27.189 28.2463 27.2667 28.1185 27.3196C27.9908 27.3726 27.8538 27.3998 27.7155 27.3996ZM24.9828 36.2023H5.84083C5.25924 36.2023 4.78799 35.7309 4.78799 35.1494C4.78799 34.568 5.25924 34.0966 5.84083 34.0966H24.9828C25.5643 34.0966 26.0356 34.568 26.0356 35.1494C26.0356 35.7309 25.5643 36.2023 24.9828 36.2023ZM15.5087 56.8606C15.2967 56.8606 15.0897 56.7967 14.9147 56.6773C14.7397 56.5578 14.6048 56.3883 14.5277 56.1909C14.4506 55.9935 14.4348 55.7774 14.4825 55.5709C14.5301 55.3645 14.639 55.1772 14.7948 55.0335L20.4042 49.8637L27.3193 42.9487C27.5171 42.7527 27.7844 42.643 28.0628 42.6435C28.3413 42.6441 28.6081 42.755 28.805 42.9519C29.0019 43.1487 29.1128 43.4156 29.1134 43.694C29.114 43.9725 29.0043 44.2398 28.8083 44.4375L21.878 51.3679C21.8679 51.378 21.8575 51.3879 21.847 51.3976L16.2219 56.5821C16.0277 56.7614 15.773 56.8609 15.5087 56.8606ZM36.3625 66.0176C36.0833 66.0176 35.8155 65.9066 35.618 65.7092C35.4206 65.5117 35.3097 65.2439 35.3097 64.9647V46.108C35.3097 45.5266 35.7809 45.0552 36.3625 45.0552C36.9441 45.0552 37.4153 45.5266 37.4153 46.108V64.9647C37.4153 65.2439 37.3044 65.5117 37.107 65.7092C36.9095 65.9066 36.6417 66.0176 36.3625 66.0176ZM56.6056 56.1637C56.3284 56.1641 56.0623 56.0548 55.8655 55.8595L51.2668 51.3137L44.3322 44.3791C44.1362 44.1814 44.0265 43.9141 44.0271 43.6356C44.0277 43.3572 44.1386 43.0904 44.3355 42.8935C44.5324 42.6966 44.7992 42.5857 45.0777 42.5851C45.3561 42.5846 45.6234 42.6943 45.8212 42.8903L52.7515 49.8206L57.3458 54.3623C57.4942 54.509 57.5956 54.6966 57.6372 54.9011C57.6788 55.1057 57.6587 55.318 57.5793 55.511C57.5 55.7041 57.3651 55.8692 57.1917 55.9854C57.0183 56.1017 56.8143 56.1637 56.6056 56.1637ZM66.5585 36.2024H46.1981C45.6165 36.2024 45.1452 35.731 45.1452 35.1496C45.1452 34.5681 45.6165 34.0967 46.1981 34.0967H66.5585C67.1401 34.0967 67.6113 34.5681 67.6113 35.1496C67.6113 35.731 67.1401 36.2024 66.5585 36.2024ZM44.6442 27.8534C44.436 27.8535 44.2324 27.7917 44.0593 27.676C43.8862 27.5604 43.7512 27.3959 43.6715 27.2036C43.5918 27.0112 43.5709 26.7995 43.6116 26.5953C43.6522 26.391 43.7524 26.2034 43.8997 26.0562L50.8251 19.1309L56.8271 12.9641C57.0221 12.7655 57.2879 12.6523 57.5663 12.6491C57.8446 12.646 58.1129 12.7532 58.3124 12.9474C58.5119 13.1415 58.6264 13.4068 58.6308 13.6851C58.6353 13.9634 58.5293 14.2322 58.3361 14.4326L52.3291 20.6046C52.3257 20.6079 52.3224 20.6113 52.3191 20.6147L45.3888 27.545C45.2911 27.643 45.1751 27.7206 45.0473 27.7735C44.9195 27.8265 44.7825 27.8536 44.6442 27.8534ZM36.3625 24.9629C36.0833 24.9629 35.8155 24.852 35.618 24.6546C35.4206 24.4571 35.3097 24.1893 35.3097 23.9101V6.80967C35.3097 6.22822 35.7809 5.75684 36.3625 5.75684C36.9441 5.75684 37.4153 6.22822 37.4153 6.80967V23.9102C37.4153 24.1894 37.3044 24.4572 37.1069 24.6546C36.9095 24.852 36.6417 24.9629 36.3625 24.9629Z" fill="#4543A8"/>
<path d="M36.3637 21.665C28.9153 21.665 22.879 27.7013 22.879 35.1497C22.879 39.2017 24.6637 42.8357 27.492 45.3073L28.592 44.8395L40.7337 45.0503L45.2329 45.3073C48.0614 42.8357 49.8484 39.2019 49.8484 35.1497C49.8484 27.7013 43.8122 21.665 36.3637 21.665Z" fill="#52CFAC"/>
<path d="M36.3625 11.7137C39.5971 11.7137 42.2193 9.09149 42.2193 5.85685C42.2193 2.6222 39.5971 0 36.3625 0C33.1278 0 30.5056 2.6222 30.5056 5.85685C30.5056 9.09149 33.1278 11.7137 36.3625 11.7137Z" fill="#CCA50D"/>
<path d="M56.9698 20.2498C60.2045 20.2498 62.8267 17.6276 62.8267 14.393C62.8267 11.1583 60.2045 8.53613 56.9698 8.53613C53.7352 8.53613 51.113 11.1583 51.113 14.393C51.113 17.6276 53.7352 20.2498 56.9698 20.2498Z" fill="#52CFAC"/>
<path d="M64.6432 41.201C67.8778 41.201 70.5 38.5788 70.5 35.3442C70.5 32.1095 67.8778 29.4873 64.6432 29.4873C61.4085 29.4873 58.7863 32.1095 58.7863 35.3442C58.7863 38.5788 61.4085 41.201 64.6432 41.201Z" fill="#CCA50D"/>
<path d="M56.9698 61.4637C60.2045 61.4637 62.8267 58.8415 62.8267 55.6068C62.8267 52.3722 60.2045 49.75 56.9698 49.75C53.7352 49.75 51.113 52.3722 51.113 55.6068C51.113 58.8415 53.7352 61.4637 56.9698 61.4637Z" fill="#52CFAC"/>
<path d="M36.3625 69.9998C39.5971 69.9998 42.2193 67.3776 42.2193 64.143C42.2193 60.9083 39.5971 58.2861 36.3625 58.2861C33.1278 58.2861 30.5056 60.9083 30.5056 64.143C30.5056 67.3776 33.1278 69.9998 36.3625 69.9998Z" fill="#CCA50D"/>
<path d="M15.7552 61.4637C18.9898 61.4637 21.612 58.8415 21.612 55.6068C21.612 52.3722 18.9898 49.75 15.7552 49.75C12.5205 49.75 9.89832 52.3722 9.89832 55.6068C9.89832 58.8415 12.5205 61.4637 15.7552 61.4637Z" fill="#52CFAC"/>
<path d="M6.35685 41.201C9.59149 41.201 12.2137 38.5788 12.2137 35.3442C12.2137 32.1095 9.59149 29.4873 6.35685 29.4873C3.1222 29.4873 0.5 32.1095 0.5 35.3442C0.5 38.5788 3.1222 41.201 6.35685 41.201Z" fill="#CCA50D"/>
<path d="M15.7552 20.2498C18.9898 20.2498 21.612 17.6276 21.612 14.393C21.612 11.1583 18.9898 8.53613 15.7552 8.53613C12.5205 8.53613 9.89832 11.1583 9.89832 14.393C9.89832 17.6276 12.5205 20.2498 15.7552 20.2498Z" fill="#52CFAC"/>
<path d="M36.3625 38.8131C39.5879 38.8131 42.2026 36.1984 42.2026 32.973C42.2026 29.7475 39.5879 27.1328 36.3625 27.1328C33.1371 27.1328 30.5223 29.7475 30.5223 32.973C30.5223 36.1984 33.1371 38.8131 36.3625 38.8131Z" fill="#4543A8"/>
<path d="M31.5938 44.2652C29.3903 41.8653 28.0445 38.6654 28.0445 35.1497C28.0445 28.585 32.7327 23.1164 38.9449 21.9114C38.0939 21.7468 37.2292 21.6643 36.3625 21.665C28.914 21.665 22.8778 27.7013 22.8778 35.1497C22.8778 39.2019 24.6635 42.8359 27.492 45.3075L31.5938 44.2652Z" fill="#52CFAC"/>
<path d="M40.1976 40.9159C42.3808 41.6732 44.1856 43.2471 45.233 45.3069C42.862 47.3789 39.7596 48.6339 36.3625 48.6339C32.9653 48.6339 29.863 47.3789 27.492 45.3069C28.5394 43.2471 30.3442 41.6732 32.5274 40.9159L33.0861 40.7222C33.1582 40.6969 33.2207 40.6498 33.265 40.5874C33.3092 40.5251 33.3331 40.4505 33.3331 40.374V32.7979H39.3918V40.374C39.3918 40.5313 39.4915 40.6702 39.6389 40.7222L40.1976 40.9159Z" fill="#4543A8"/>
<path d="M38.9409 48.3885C35.1919 47.6607 32.0005 45.3742 30.0571 42.2373C28.981 43.0536 28.104 44.1032 27.492 45.3072C29.863 47.3792 32.9653 48.6342 36.3625 48.6342C37.2456 48.6342 38.1053 48.5505 38.9409 48.3885Z" fill="#4543A8"/>
</g>
<defs>
<clipPath id="clip0_12_14705">
<rect width="70" height="70" fill="white" transform="translate(0.5)"/>
</clipPath>
</defs>
</svg>
