<svg width="70" height="70" viewBox="0 0 70 70" fill="none" xmlns="http://www.w3.org/2000/svg">
<path d="M47.491 6.91121e-10H40.498C40.3722 -5.65465e-06 40.2489 0.0346964 40.1416 0.100285C40.0342 0.165874 39.9471 0.259806 39.8897 0.371738L33.1031 13.611H41.6325L48.0994 0.995313C48.3325 0.540586 48.0022 6.91121e-10 47.491 6.91121e-10Z" fill="#4543A8"/>
<path d="M54.4444 70.0004H15.5556C13.6109 70.0004 12.0342 68.4239 12.0342 66.479V15.1883C12.0342 13.2436 13.6107 11.667 15.5556 11.667H54.4444C56.3891 11.667 57.9657 13.2435 57.9657 15.1883V66.4792C57.9657 68.4239 56.3892 70.0004 54.4444 70.0004Z" fill="#E9E9EB"/>
<path d="M54.4444 11.667H52.2611C52.3082 11.8988 52.3318 12.1347 52.3317 12.3712V60.1408C52.3317 64.0303 49.1787 67.1833 45.2892 67.1833H12.1048C12.431 68.7905 13.8521 70.0002 15.5556 70.0002H54.4444C56.3891 70.0002 57.9657 68.4237 57.9657 66.4789V15.1883C57.9657 13.2436 56.3892 11.667 54.4444 11.667Z" fill="#E9E9EB"/>
<path d="M45.2994 48.6107H42.7778L35.3316 46.7492C35.1138 46.6947 34.8861 46.6947 34.6683 46.7492L27.2221 48.6107H24.7004C23.9453 48.6107 23.3333 47.9986 23.3333 47.2435V26.6445C23.3333 25.8894 23.9453 25.2773 24.7004 25.2773H45.2994C46.0545 25.2773 46.6666 25.8894 46.6666 26.6445V47.2435C46.6666 47.9985 46.0545 48.6107 45.2994 48.6107Z" fill="#F9F4FE"/>
<path d="M46.6666 31.1111C49.8883 31.1111 52.5 28.4994 52.5 25.2777C52.5 22.056 49.8883 19.4443 46.6666 19.4443C43.4449 19.4443 40.8333 22.056 40.8333 25.2777C40.8333 28.4994 43.4449 31.1111 46.6666 31.1111Z" fill="#52CFAC"/>
<path d="M52.3317 26.6743C52.4416 26.2268 52.5 25.759 52.5 25.2776C52.5 24.7962 52.4416 24.3283 52.3317 23.8809V26.6743Z" fill="#52CFAC"/>
<path d="M21.3888 56.0469V64.5081C21.3888 64.6894 21.4608 64.8633 21.589 64.9915C21.7172 65.1197 21.8911 65.1917 22.0724 65.1917H24.5942C24.7755 65.1917 24.9493 65.1197 25.0775 64.9915C25.2057 64.8633 25.2778 64.6894 25.2778 64.5081V56.0469C25.2778 55.8656 25.2057 55.6917 25.0775 55.5635C24.9493 55.4353 24.7755 55.3633 24.5942 55.3633H22.0724C21.8911 55.3633 21.7172 55.4353 21.589 55.5635C21.4608 55.6917 21.3888 55.8656 21.3888 56.0469ZM37.628 65.1917H44.0386C44.2199 65.1917 44.3938 65.1197 44.522 64.9915C44.6502 64.8633 44.7222 64.6894 44.7222 64.5081V56.0469C44.7222 55.8656 44.6502 55.6917 44.522 55.5635C44.3938 55.4353 44.2199 55.3633 44.0386 55.3633H37.628C37.4467 55.3633 37.2728 55.4353 37.1446 55.5635C37.0164 55.6917 36.9444 55.8656 36.9444 56.0469V64.5081C36.9444 64.6894 37.0164 64.8633 37.1446 64.9915C37.2728 65.1197 37.4467 65.1917 37.628 65.1917Z" fill="#4543A8"/>
<path d="M42.7778 48.6109V42.4687C42.7778 40.4914 41.1749 38.8887 39.1978 38.8887H30.8023C28.8251 38.8887 27.2224 40.4916 27.2224 42.4687V48.6109H42.7778Z" fill="#52CFAC"/>
<path d="M35 29.167C33.0251 29.167 31.4606 30.8346 31.5862 32.8055L31.7817 35.8699C31.89 37.5677 33.2986 38.8893 35 38.8893C36.7012 38.8893 38.1098 37.5677 38.2182 35.8699L38.4137 32.8055C38.5393 30.8347 36.9749 29.167 35 29.167Z" fill="#FFCFBE"/>
<path d="M40.8334 18.5254H29.1667C28.6005 18.5254 28.1414 18.0664 28.1414 17.5C28.1414 16.9336 28.6005 16.4746 29.1667 16.4746H40.8334C41.3997 16.4746 41.8588 16.9336 41.8588 17.5C41.8588 18.0664 41.3997 18.5254 40.8334 18.5254Z" fill="#4543A8"/>
<path d="M44.7222 53.5254H25.2778C24.7115 53.5254 24.2524 53.0664 24.2524 52.5C24.2524 51.9336 24.7115 51.4746 25.2778 51.4746H44.7222C45.2885 51.4746 45.7476 51.9336 45.7476 52.5C45.7476 53.0664 45.2885 53.5254 44.7222 53.5254ZM29.1666 65.1922C28.8946 65.1922 28.6338 65.0841 28.4415 64.8918C28.2492 64.6995 28.1412 64.4387 28.1412 64.1668V56.3888C28.1412 55.8224 28.6003 55.3634 29.1666 55.3634C29.7329 55.3634 30.192 55.8224 30.192 56.3888V64.1668C30.192 64.4387 30.084 64.6995 29.8917 64.8918C29.6994 65.0841 29.4385 65.1922 29.1666 65.1922ZM33.0556 65.192C32.7836 65.192 32.5228 65.084 32.3305 64.8917C32.1382 64.6994 32.0302 64.4386 32.0302 64.1666V56.3888C32.0302 55.8224 32.4893 55.3634 33.0556 55.3634C33.6219 55.3634 34.081 55.8224 34.081 56.3888V64.1666C34.081 64.4386 33.9729 64.6994 33.7806 64.8917C33.5883 65.084 33.3275 65.192 33.0556 65.192Z" fill="#4543A8"/>
<path d="M32.1365 44.7227C32.1365 44.1562 31.6774 43.6973 31.1111 43.6973C30.5449 43.6973 30.0858 44.1562 30.0858 44.7227V48.6116H32.1365V44.7227ZM39.9142 44.7227C39.9142 44.1562 39.4551 43.6973 38.8888 43.6973C38.3225 43.6973 37.8634 44.1562 37.8634 44.7227V48.6116H39.9142V44.7227Z" fill="#52CFAC"/>
<path d="M48.6111 65.1919C48.3392 65.1919 48.0784 65.0838 47.8861 64.8915C47.6938 64.6992 47.5858 64.4384 47.5858 64.1665V56.3887C47.5858 55.8222 48.0449 55.3633 48.6111 55.3633C49.1774 55.3633 49.6365 55.8222 49.6365 56.3887V64.1665C49.6365 64.4384 49.5285 64.6992 49.3362 64.8915C49.1439 65.0838 48.8831 65.1919 48.6111 65.1919Z" fill="#4543A8"/>
<path d="M48.6112 24.2522H47.6922V23.333C47.6922 22.7666 47.2331 22.3076 46.6668 22.3076C46.1005 22.3076 45.6414 22.7666 45.6414 23.333V24.2522H44.7224C44.1561 24.2522 43.697 24.7111 43.697 25.2776C43.697 25.844 44.1561 26.303 44.7224 26.303H45.6414V27.222C45.6414 27.7884 46.1005 28.2474 46.6668 28.2474C47.2331 28.2474 47.6922 27.7884 47.6922 27.222V26.303H48.6112C49.1775 26.303 49.6366 25.844 49.6366 25.2776C49.6366 24.7111 49.1775 24.2522 48.6112 24.2522Z" fill="#E9E9EB"/>
<path d="M37.7703 17.5H30.7773C30.6515 17.5 30.5282 17.4653 30.4209 17.3997C30.3136 17.3341 30.2264 17.2402 30.169 17.1283L21.8992 0.995449C21.666 0.540586 21.9963 6.91121e-10 22.5075 6.91121e-10H29.5005C29.6263 -5.65465e-06 29.7496 0.0346964 29.8569 0.100285C29.9643 0.165874 30.0514 0.259806 30.1088 0.371738L38.3786 16.5046C38.6118 16.9594 38.2815 17.5 37.7703 17.5Z" fill="#4543A8"/>
</svg>
